<svg xmlns="http://www.w3.org/2000/svg" viewBox="0 0 186.59 348.87"><defs><style>.cls-1{fill:#1d3e46;}</style></defs><g id="Layer_2" data-name="Layer 2"><g id="Layer_1-2" data-name="Layer 1"><path class="cls-1" d="M23.07,55.58c1.66,1.8,2.56,4.08,3.9,6.08.68,1,1.34,2,2.09,3,2.25,2.83,4.51,5.66,6.82,8.45a67.36,67.36,0,0,0,12,11.13c5.64,4.17,11,8.66,16.63,12.87,1.38,1,2.8,2,4.18,3.09.89.69,1.73,1.46,2.61,2.17a5.42,5.42,0,0,1,1.44,1.85c2.69,5.41,5.84,10.56,9,15.72a2.39,2.39,0,0,1,.35.83,4.15,4.15,0,0,1-.32-.27l-7-6.88c-1.65-1.6-3.3-3.2-5-4.78-2-1.86-4-3.69-6-5.52A49.7,49.7,0,0,0,51.28,95a99.72,99.72,0,0,0-16.66-6.08c-4.18-1.14-8.43-2-12.69-2.81-.85-.16-1.68-.42-2.52-.63l-.79-.21c-.13.21-.24.38-.35.57a3.6,3.6,0,0,0,.34.5,186.22,186.22,0,0,0,21,20.34,72.64,72.64,0,0,0,11.18,7.24c3.06,1.63,6.19,3.14,9.34,4.57A137.52,137.52,0,0,0,77.74,125a20.65,20.65,0,0,1,3.54,1.47A31.61,31.61,0,0,0,85,128a7.39,7.39,0,0,1,3.86,3c.93,1.41,1.93,2.78,2.73,4.29A19.3,19.3,0,0,0,92.91,137q10,13.88,19.92,27.76c.81,1.12,1.53,2.31,2.29,3.47-1.48-1.14-3-2.3-4.46-3.44q-8.18-6.24-16.91-11.7a110.24,110.24,0,0,0-12.63-6.79,71.13,71.13,0,0,0-7.59-2.92c-2.15-.69-4.36-1.2-6.54-1.77-1.35-.35-2.71-.66-4.06-1-3-.78-6.06-1.58-9.08-2.38-.29-.07-.57-.18-.91-.28-.17-.4-.33-.82-.51-1.23A73,73,0,0,0,41,118.12a78.26,78.26,0,0,0-12.41-11.51c-3.45-2.55-6.84-5.19-10.26-7.78l-.41-.29-.49.13c0,.16-.1.29-.07.37a8.57,8.57,0,0,0,.56,1.23c1.62,2.73,3.06,5.54,4.49,8.37,2.05,4,4.5,7.85,6.88,11.7,1.49,2.4,3.09,4.73,4.67,7.08a49.39,49.39,0,0,0,4.09,5.26c2.16,2.47,4.3,4.95,6.65,7.24.68.66,1.27,1.4,1.88,2.12a49.66,49.66,0,0,0,4.75,5,45.84,45.84,0,0,1,5.9,6.55,5.64,5.64,0,0,1,.37.64c-.3-.22-.59-.42-.87-.64a116.67,116.67,0,0,0-10.09-7.64,103.22,103.22,0,0,0-10-5.49,105.22,105.22,0,0,0-18.4-6.86A97.88,97.88,0,0,0,7.13,131c-1.49-.23-3-.4-4.47-.61L.28,130l-.28.45c.08.14.11.28.19.32a14.08,14.08,0,0,1,1.47.85c1.13.87,2.28,1.73,3.32,2.71A75.83,75.83,0,0,0,23.86,147.4a76.86,76.86,0,0,0,7.6,3.21c2.09.76,4.2,1.45,6.35,2a74.19,74.19,0,0,0,10.25,1.66c2.24.26,4.48.63,6.69,1.06a12.2,12.2,0,0,1,4.6,2.11,2.92,2.92,0,0,1,.61.65c1.79,2.37,3.54,4.78,5.36,7.14A35.05,35.05,0,0,0,68,168.2c3.3,3.42,6.62,6.81,9.92,10.22a11.1,11.1,0,0,1,.76.91c-.35-.19-.71-.36-1-.57a85.13,85.13,0,0,0-9.47-5.27c-1.78-.82-3.59-1.6-5.42-2.28-2.37-.88-4.75-1.71-7.17-2.44a70,70,0,0,0-9.94-2.11A104.13,104.13,0,0,0,23.27,166c-2.14.14-4.29.18-6.44.26-.41,0-.84,0-1,.55.13.11.25.3.4.34a40.32,40.32,0,0,1,8.69,4c3.14,1.79,6.2,3.73,9.37,5.46,2.28,1.24,4.66,2.31,7,3.34,2.56,1.1,5.15,2.15,7.78,3.07s5.24,1.69,7.88,2.45c1.66.49,3.36.85,5,1.27a55.8,55.8,0,0,0,10.27,1.57c3.12.18,6.24.4,9.36.58.79.05,1.58,0,2.37.05l5.86.26a3.54,3.54,0,0,1,2.14.92,63.44,63.44,0,0,1,4.83,4.59,53,53,0,0,0,3.93,3.56c2.84,2.42,5.67,4.85,8.57,7.19,3.18,2.55,6.18,5.29,9.22,8,1,.94,2,2,3,3l-3.22-1.82a69.18,69.18,0,0,0-10.54-4.92c-2.8-1-5.59-2.05-8.41-3a73.17,73.17,0,0,0-11.27-2.92,42.66,42.66,0,0,0-9.24-.45,96.17,96.17,0,0,0-23.3,4.31c-3.14,1-6.26,2-9.39,2.95a7.16,7.16,0,0,0-.73.34c0,.51.27.62.58.68.51.11,1,.21,1.55.3a32.7,32.7,0,0,1,7,2.17c3.24,1.33,6.39,2.88,9.75,3.93,1.76.56,3.47,1.26,5.25,1.77A88,88,0,0,0,82.88,223a84.47,84.47,0,0,0,20.41.48c1.49-.17,3-.46,4.46-.71,3.8-.62,7.59-1.27,11.39-1.87a14.25,14.25,0,0,1,2.36-.11c1.09,0,2.19.07,3.28.13.37,0,.73.09,1.08.14l7.11,7.84a5.88,5.88,0,0,1-.75-.22,34.83,34.83,0,0,0-7.85-2.49,72.94,72.94,0,0,0-17.88-1.23,52.21,52.21,0,0,0-16.8,3.84,71.44,71.44,0,0,0-10.18,5.15q-9,5.39-18,10.78c-1.64,1-3.24,2.07-4.84,3.14a3.08,3.08,0,0,0-1.4,1.49l.26.64c.45.05.89.14,1.33.15,1,0,2,0,3.05,0,4.94-.11,9.88-.18,14.81-.34a92.61,92.61,0,0,0,23-3.4,77.32,77.32,0,0,0,20.13-9.13c2.1-1.34,4.23-2.63,6.36-3.91a28.1,28.1,0,0,1,5.1-2.44,9.16,9.16,0,0,1,3.77-.6,9.85,9.85,0,0,1,1.27.24,35.79,35.79,0,0,0,3.47,5.79,4.94,4.94,0,0,1,.3.49,36,36,0,0,0,5.7,7.84,8.54,8.54,0,0,1,.71.88c1.6,2.51,3.49,4.83,4.92,7.45a10.14,10.14,0,0,0,1.1,1.58,22.66,22.66,0,0,1,2.31,3.35,5,5,0,0,0,.35.58,69.54,69.54,0,0,1,5.68,10.28,187.9,187.9,0,0,1,7.73,18.35c.77,2.16,1.48,4.35,2.09,6.57,1.06,3.81,2,7.65,3,11.48a46.51,46.51,0,0,1,1.3,8c.22,3,.22,6,.2,9,0,3.28.14,6.56.25,9.84.1,3,.26,5.95.36,8.92.06,2,.07,4,.11,6a5.38,5.38,0,0,0,.08.9,1.13,1.13,0,0,0,.6.95.9.9,0,0,0,1-.33,4,4,0,0,0,1.12-2.3c0-.11,0-.22,0-.34.05-3,.16-5.95.13-8.93,0-3.61-.22-7.23-.33-10.85,0-.6,0-1.21-.08-1.8-.46-4.08-.68-8.19-1.43-12.24-.18-1-.3-2-.39-3-.42-4.78-1.35-9.48-2.12-14.2-.56-3.43-1.23-6.83-2.08-10.2s-1.55-7-2.53-10.44c-1.81-6.35-3.68-12.68-5.87-18.91-.25-.71-.46-1.43-.73-2.14a7.12,7.12,0,0,1-.27-4.33c.65-2.59,1.23-5.21,1.95-7.79a57.08,57.08,0,0,1,7.42-15.8q4.61-7.12,9-14.36a32.94,32.94,0,0,0,3.72-9.31c.54-2.16,1-4.34,1.46-6.52a85.61,85.61,0,0,0,1.31-9.28c.25-2.25.41-4.51.59-6.76a9.65,9.65,0,0,0,0-1.7,1.32,1.32,0,0,0-.71-1.2c-.59-.09-.91.31-1.22.68-.7.84-1.39,1.69-2.06,2.56q-6.75,8.79-13.87,17.28a58.55,58.55,0,0,0-6.11,8.26,38.44,38.44,0,0,0-4,8.82,48,48,0,0,0-1.58,17,99.94,99.94,0,0,0,1.64,10.61c.36,1.85.69,3.7,1,5.56a4.58,4.58,0,0,1,0,.83,16,16,0,0,1-.61-1.63,82.5,82.5,0,0,0-5-12.84c-1.42-3.16-3-6.26-4.15-9.54a90.37,90.37,0,0,0-4.25-10.23c-.63-1.24-1.31-2.47-2.06-3.64a10.68,10.68,0,0,1-1.46-3.4,26.55,26.55,0,0,1-.8-7.74c.12-1.76,0-3.53.17-5.28a34,34,0,0,1,.64-4.36c.37-1.81.85-3.6,1.29-5.39A97.45,97.45,0,0,1,147.76,170c.78-1.88,1.5-3.8,2.14-5.73a47.55,47.55,0,0,0,2.28-15.93c0-3.05-.2-6.11-.32-9.16,0-.37,0-.77-.47-1-.49.08-.58.52-.71.9a19,19,0,0,1-2,4c-1.65,2.57-3.33,5.12-5,7.7-1.74,2.73-3.49,5.46-5.17,8.24a32.62,32.62,0,0,0-3.46,9.29,42.22,42.22,0,0,0-.72,10.58q0,3.33.26,6.66a29.11,29.11,0,0,0,1.32,6.53c1,3.26,2.13,6.44,3.36,9.61a16.79,16.79,0,0,1,.51,1.75l-2.27-4.08c-1.5-2.66-3-5.32-4.5-8-1-1.73-2-3.47-3-5.18a30.94,30.94,0,0,0-2.1-3.08c-1.7-2.16-3.46-4.28-5.22-6.4a2.69,2.69,0,0,1-.63-1.53,37.54,37.54,0,0,1,.13-10.48c.36-2,.75-4.08,1.29-6.08a37.74,37.74,0,0,1,1.62-4.46c1.86-4.58,4.22-8.93,6.39-13.36A101.22,101.22,0,0,0,136,130.61a48.88,48.88,0,0,0,2.31-10.47,102.21,102.21,0,0,0,.75-16.59c0-1.21,0-2.41,0-3.62a7.31,7.31,0,0,1,.43-2.66,5.42,5.42,0,0,0,.14-.72l-.69-.42a4.69,4.69,0,0,0-.62.69c-2.63,4.72-6.09,8.89-8.81,13.55-1,1.66-2.16,3.18-3.22,4.78a32.39,32.39,0,0,0-3.23,5.7c-.72,1.74-1.34,3.52-2,5.28a44.71,44.71,0,0,0-2.27,8.51,25.14,25.14,0,0,1-.71,3.09,38.78,38.78,0,0,0-1.27,7.56,98.06,98.06,0,0,0-.24,10.28,10.48,10.48,0,0,0,.07,1.25,73,73,0,0,0,3.32,15.67,3.41,3.41,0,0,1,.1.64c-.2-.21-.42-.4-.6-.63-.84-1.11-1.69-2.22-2.5-3.35-2.25-3.12-4.5-6.24-6.71-9.39a93,93,0,0,1-5.5-9.09,21.78,21.78,0,0,1-1.93-4.43,15.59,15.59,0,0,1-.65-5.25,69.29,69.29,0,0,1,1-9.21c.14-.71.31-1.4.51-2.09,1.36-4.67,2.91-9.28,4.52-13.87,1.17-3.34,2.22-6.73,3.29-10.11a33.32,33.32,0,0,0,1.24-14.31c-.42-3.4-.79-6.81-1.26-10.21-.22-1.52-.63-3-1-4.52-.08-.35-.17-.74-.66-.78-.09.12-.2.21-.2.3,0,1.85-.9,3.39-1.7,5a98.21,98.21,0,0,1-8,12.59,25.2,25.2,0,0,0-4,8.66q-.82,3.36-1.57,6.72a39.49,39.49,0,0,0-.78,7.52c0,1.58-.1,3.16-.19,4.74a29.47,29.47,0,0,0,1.94,12.53,89.25,89.25,0,0,0,4.12,8.67c.59,1.14,1.13,2.3,1.7,3.44l.07.26-.17-.21c-1-1.22-2-2.43-3-3.68-1.56-2-3.08-4.1-4.62-6.16-.27-.36-.53-.73-.77-1.11-1.47-2.24-2.92-4.48-4.38-6.73A2.45,2.45,0,0,1,88,128a28.54,28.54,0,0,0-2.58-4.49c-.89-1.49-1.87-2.92-2.81-4.37-.06-.1-.14-.18-.19-.28l-2.94-4.95a4.36,4.36,0,0,0-.33-.6,23.33,23.33,0,0,1-2.77-5.28c-.47-1-1-2-1.49-3a12.14,12.14,0,0,1-1.33-4.41,2.85,2.85,0,0,0-.3-1.08,3.12,3.12,0,0,1-.35-1.86,33.51,33.51,0,0,1,.41-3.47A45.59,45.59,0,0,1,77.69,82a116.2,116.2,0,0,0,5.24-11.4,42.19,42.19,0,0,0,2.14-8.19,71.76,71.76,0,0,0,.66-17.69c-.09-1.24-.31-2.47-.45-3.7-.29-2.7-.56-5.4-.84-8.1a5.16,5.16,0,0,0-.1-.89,3.78,3.78,0,0,0-.4-.76,3.64,3.64,0,0,0-.66.49,1.91,1.91,0,0,0-.29.61,50.76,50.76,0,0,1-3,6.68c-1.66,3.53-3.76,6.79-5.75,10.12a49.77,49.77,0,0,0-4.12,8.66c-.26.71-.55,1.41-.83,2.11a38.18,38.18,0,0,0-2.07,8.89,39.82,39.82,0,0,0-.33,8.45,27.28,27.28,0,0,1,0,3.5,24.68,24.68,0,0,0,.81,7.51c.66,2.51,1.37,5,2,7.53a8.7,8.7,0,0,1,.18,1c-1.14-2.43-2.39-4.83-3.4-7.32C64.22,83.79,62,78,59.76,72.26A26,26,0,0,1,58.21,65a100.81,100.81,0,0,1,0-14.12c.16-3.31.26-6.63.29-9.94a50.63,50.63,0,0,0-.31-5.64,151.16,151.16,0,0,0-3.64-20,78,78,0,0,0-2.94-8.91c-.66-1.72-1.29-3.46-1.94-5.19a5.88,5.88,0,0,0-.3-.73A.66.66,0,0,0,48.6,0c-.44.16-.43.57-.47.94-.37,3.29-.83,6.58-1.07,9.89s-.27,6.92-.38,10.39c-.06,1.81-.09,3.62-.14,5.43a65.71,65.71,0,0,0,1.65,17.06,78.89,78.89,0,0,0,4.66,14.51c1.06,2.34,2,4.71,3.11,7,.49,1.06,1.14,2,1.7,3.07a8.72,8.72,0,0,1,.51,1.12c.5,1.38.94,2.79,1.47,4.16q2.89,7.56,5.83,15.09c.36.91.76,1.81,1.13,2.72.11.29.18.61.27.92-.26-.3-.54-.58-.78-.9-3.52-4.81-7-9.64-10.55-14.43A54.44,54.44,0,0,0,43.29,64.89a70.15,70.15,0,0,0-12.75-7.26c-2.15-.92-4.31-1.81-6.46-2.71-.31-.13-.61-.33-1-.14A.52.52,0,0,0,23.07,55.58ZM47.3,27.24a7.55,7.55,0,0,1,.23,1.13A140.36,140.36,0,0,0,49.7,42.66a71.89,71.89,0,0,0,2.64,9.11c.79,2.44,1.46,4.91,2.17,7.37a3.18,3.18,0,0,1,.07.62c-.31-.58-.64-1.15-.91-1.75a75.23,75.23,0,0,1-3.44-9.68,72.75,72.75,0,0,1-2.91-17C47.25,30,47.3,28.61,47.3,27.24Zm1-10.74A48.41,48.41,0,0,0,49,27.18c.47,2.56.82,5.13,1.2,7.7.19,1.31.31,2.62.5,3.93.44,3.17.91,6.34,1.35,9.51a11.53,11.53,0,0,1,0,1.18,2.82,2.82,0,0,1-.23-.46,49.44,49.44,0,0,1-1.76-6.55c-1.18-6.18-2-12.43-2.66-18.68-.08-.71-.12-1.43-.13-2.14A106.17,106.17,0,0,1,48,6.44c.15-1.15.33-2.3.5-3.45a1.06,1.06,0,0,1,.18.64C48.57,7.92,48.48,12.21,48.29,16.5Zm4.05,4.95c.16,2.14.4,4.27.55,6.41.56,7.59,1.44,15.15,2.41,22.69a45.66,45.66,0,0,1,.26,7.67c0,.16,0,.32.08.48l-.21-.06c0,.13-.09.26-.14.4l-.06-.47a1.21,1.21,0,0,1-.18-.28,47.29,47.29,0,0,1-2.54-9.36c-.44-3.67-1-7.32-1.49-11-.11-.75-.2-1.49-.25-2.25a69.3,69.3,0,0,0-1.31-8.94A31.84,31.84,0,0,1,48.71,20c.06-3.69.25-7.38.39-11.07a5.1,5.1,0,0,1,.17-.83c.06.51.14,1,.18,1.52.22,3,.36,5.93.67,8.88.68,6.55,1.44,13.09,2.17,19.63a9.91,9.91,0,0,0,.24,1.08,10,10,0,0,0,0-1.22C52,32.4,51.5,26.77,50.84,21.16c-.61-5.09-.77-10.21-1.25-15.31a6.39,6.39,0,0,1,0-.87,3.41,3.41,0,0,1,.22.51c.09.33.17.66.23,1A132.49,132.49,0,0,1,52.34,21.45Zm5,32.53c0-.32-.11-.63-.13-.95-.05-1-.07-2-.12-3.05-.34-7.31-1-14.59-1.86-21.86-.19-1.65-.36-3.3-.67-4.93-.65-3.44-1.4-6.87-2.1-10.3-.06-.31-.09-.63-.12-.94.16.35.35.7.48,1.07a84.52,84.52,0,0,1,3.36,13.92c.66,4.16,1.08,8.36,1.48,12.56a90.65,90.65,0,0,1-.21,14A3,3,0,0,1,57.37,54Zm.14,9.71a14.9,14.9,0,0,1-.7-2.11,21.4,21.4,0,0,1-.87-6.8,36.19,36.19,0,0,0-.26-4.29c-.44-3.89-.93-7.78-1.4-11.67-.05-.41-.08-.83-.12-1.24q-.7-8.05-1.4-16.1a90.88,90.88,0,0,0-1.34-9.86,7.14,7.14,0,0,1-.08-.93,7.16,7.16,0,0,1,.35,1q1.38,6.58,2.72,13.18a8.67,8.67,0,0,1,.13.89c.69,6.37,1.51,12.73,1.9,19.13.29,4.92.53,9.85.8,14.78C57.32,61,57.42,62.34,57.51,63.69ZM109.58,83c-.15.35-.31.69-.44,1a32,32,0,0,1-3,5.82c-1.5,2.34-2.92,4.74-4.36,7.13a11.39,11.39,0,0,0-.84,1.72,73.77,73.77,0,0,0-2.66,9.46,45.17,45.17,0,0,0-.84,7,41.75,41.75,0,0,0,.1,8.8c.5,3.35,1.07,6.69,1.54,10.05.24,1.73.35,3.48.51,5.22a9.21,9.21,0,0,1-.46-1c-.72-2.11-1.43-4.21-2.14-6.32a12.48,12.48,0,0,1-.41-1.41,54.25,54.25,0,0,1-1.2-11.57c0-1.5.07-3,.13-4.52a39.56,39.56,0,0,1,1.55-10.25c.41-1.32.86-2.63,1.29-3.94-.1.09-.24.17-.29.29a34.68,34.68,0,0,0-2.13,6.88,61,61,0,0,0-.87,8.53A55.76,55.76,0,0,0,96,129.6a15,15,0,0,0,.45,1.87c1,3,2,6,3,9,.12.35.19.73.29,1.09a68.26,68.26,0,0,1-4.2-9.16A27.59,27.59,0,0,1,93.88,122c.08-2.07.12-4.15.18-6.22a39,39,0,0,1,1.24-9.38c.61-2.22,1.33-4.4,2-6.6a22.49,22.49,0,0,1,3-5.91c1.75-2.58,3.59-5.12,5.27-7.75a34.44,34.44,0,0,0,3.93-7.6,1.88,1.88,0,0,1,.21-.36c.09,0,.14.06.15.08A7,7,0,0,1,109.58,83Zm1.93,12.37c-.39,1.8-.73,3.61-1.07,5.43-.26,1.33-.45,2.67-.75,4-.55,2.39-1.16,4.76-1.76,7.13-.12.47-.3.93-.46,1.39-.35,1-.73,2-1,3-.23.71-.37,1.46-.59,2.18-.94,3.06-1.9,6.12-2.85,9.18-.19.64-.35,1.31-.5,2-.29,1.24-.56,2.49-.84,3.73a.83.83,0,0,1-.14-.51,52.85,52.85,0,0,1,1.18-8.5c.93-3.92,1.95-7.82,2.92-11.73.28-1.13.53-2.28.79-3.41.43-1.8.85-3.59,1.28-5.39.11-.44.25-.87.36-1.31.55-2.19,1.11-4.37,1.64-6.57a23.9,23.9,0,0,0,.58-3c.15-1.5.2-3,.29-4.51s.15-2.81.23-4.22a2.72,2.72,0,0,1,.13.49c.28,2.35.55,4.71.84,7.07A10.59,10.59,0,0,1,111.51,95.33ZM108,113c-.1.31-.2.62-.29.93q.51-2.51,1.19-5A76.35,76.35,0,0,0,111,99.63c.18-1.22.5-2.42.76-3.63l.22,0c0,.22,0,.44,0,.67a28,28,0,0,1-1.2,7.56C109.9,107.21,108.92,110.11,108,113Zm-7.06,28.71-.35-.32-.09-.5h0c-.08-.7-.12-1.41-.24-2.11a70.6,70.6,0,0,1-1-13.38c.09-3.17.41-6.31.73-9.45a39.59,39.59,0,0,1,1.73-8.5c.43-1.29.86-2.58,1.28-3.87.08-.26.14-.54.21-.81a1.41,1.41,0,0,0-.4.68c-.48,1.47-.92,3-1.44,4.41a31.17,31.17,0,0,0-1.51,6.59,99.92,99.92,0,0,0-1,13c0,.54-.08,1.09-.12,1.64a1.6,1.6,0,0,1-.15-.37,49.49,49.49,0,0,1-1-9.55c.1-2.52.23-5,.51-7.56A60.36,60.36,0,0,1,101,99.27a6.34,6.34,0,0,1,.46-1,76.83,76.83,0,0,1,4.91-8.12,23.34,23.34,0,0,0,2.64-4.73c.29-.73.68-1.42,1-2.12a4.64,4.64,0,0,1,.06,1.57,40.1,40.1,0,0,1-1,6.81c-.62,2.22-1.15,4.46-1.76,6.67a24.68,24.68,0,0,1-1,3,71.08,71.08,0,0,0-2.55,7.13c-.66,2.36-1.34,4.71-2,7.07a4.23,4.23,0,0,0,0,.88c.41-1.45.9-2.88,1.23-4.35a45.37,45.37,0,0,1,2-6.34,69.16,69.16,0,0,0,3-8.28c.66-2.59,1.36-5.16,2.09-7.91,0,.45,0,.74,0,1a23.42,23.42,0,0,1-.73,5.13c-.65,2.66-1.36,5.32-2,8s-1.39,5.63-2.08,8.44-1.39,5.94-2.21,8.87a54.21,54.21,0,0,0-1.75,8.62c-.12,1-.27,2-.41,3.06-.09-.48-.17-1-.26-1.44a11.74,11.74,0,0,0-.14,1.55c.1,2.33.26,4.64.37,7C101,140.41,100.93,141.07,100.94,141.73Zm74,205.52.13,0c.07.11.14.22.21.35l-.18.08-.12,0C175,347.49,175,347.37,175,347.25Zm.33-2.93a3,3,0,0,1,0,2.06A4.35,4.35,0,0,1,175.31,344.32Zm.47-15.18a18.55,18.55,0,0,1-.22-4c0-.1.06-.2.11-.38a1.3,1.3,0,0,1,.14.35C175.81,326.45,175.79,327.79,175.78,329.14Zm-1.33-8.08a6.08,6.08,0,0,1,.16,1.19q.34,7.83.68,15.66c0,.43,0,.86,0,1.29a2.09,2.09,0,0,1-.13-.49c-.2-2.62-.41-5.24-.57-7.87-.12-2-.16-4.06-.26-6.08A15.81,15.81,0,0,1,174.45,321.06Zm-52.1-88.27c-2.9,1.17-5.8,2.33-8.81,3.21-1.15.34-2.3.72-3.42,1.15a50,50,0,0,1-7.17,2c-1.07.23-2.14.45-3.2.72-4.7,1.22-9.42,2.38-14.17,3.39-6.45,1.37-12.88,2.84-19.37,4-.42.07-.85.07-1.28.11a2.67,2.67,0,0,1,.45-.22q5.82-1.67,11.71-3.05c1-.24,2-.47,3-.66A36.3,36.3,0,0,0,85.19,242q2.3-.79,4.64-1.43c3.68-1,7.29-2.22,11.06-2.83a12,12,0,0,0,1.64-.44,64.58,64.58,0,0,1,8.36-1.95c.85-.15,1.69-.39,2.52-.62,1.2-.34,2.4-.69,3.59-1.05a3.56,3.56,0,0,0,.68-.33,13,13,0,0,0-1.64.27,62.58,62.58,0,0,1-8.33,2,33.44,33.44,0,0,0-3.39.82c-2.17.61-4.34,1.21-6.57,1.62-1.36.26-2.68.7-4,1.07l-6.3,1.74a1.29,1.29,0,0,1-.34,0,1.07,1.07,0,0,1-.16.14,36.28,36.28,0,0,1-6.89,2.1,5.94,5.94,0,0,1-.73,0,3.06,3.06,0,0,1,.55-.26c2.16-.65,4.31-1.29,6.47-1.91a4.8,4.8,0,0,1,.76-.11,6.48,6.48,0,0,1,.8-.38c6-1.81,11.89-3.63,17.85-5.41,1.58-.48,3.2-.86,4.81-1.24,2.79-.66,5.58-1.29,8.37-1.94a9.72,9.72,0,0,0,1-.39,11.58,11.58,0,0,0-1.32.14c-2.76.62-5.51,1.23-8.26,1.88-1.72.41-3.44.82-5.14,1.31q-5.16,1.49-10.29,3L71.35,245a8.23,8.23,0,0,1-3,.42c.33-.14.65-.31,1-.43,2.64-.9,5.29-1.76,7.92-2.71,4.79-1.73,9.64-3.25,14.54-4.65,5.9-1.7,11.81-3.41,17.72-5.09,1.37-.39,2.77-.71,4.17-1,2.7-.55,5.4-1.09,8.11-1.58,1.66-.31,3.34-.54,5-.74a8.52,8.52,0,0,1,2.75.16,7,7,0,0,1-.68.31c-1,.3-2,.58-3,.87l.19.19-.25,0-.5.07-.35.38-.07.22A25.64,25.64,0,0,1,122.35,232.79ZM66.72,245.33a64.75,64.75,0,0,1,6.44-3c2.23-.91,4.42-1.9,6.64-2.84S84,237.71,86.07,237c3.15-1.15,6.33-2.19,9.52-3.23,1.5-.49,3-.92,4.56-1.31,4.38-1.11,8.84-1.82,13.29-2.62a52.12,52.12,0,0,1,8.64-.82c.47,0,.94.06,1.42.09a3.23,3.23,0,0,1-.47.21c-2.88.57-5.77,1.12-8.64,1.71-1.85.38-3.69.77-5.51,1.26-3.13.83-6.24,1.74-9.35,2.63-6.09,1.75-12.19,3.42-18.19,5.47-4.38,1.49-8.74,3.06-13.12,4.59C67.73,245.1,67.22,245.2,66.72,245.33Zm.64.73a16.2,16.2,0,0,1-3.42,1,2.37,2.37,0,0,1-.6,0,21.66,21.66,0,0,1,2.24-.83A10.55,10.55,0,0,1,67.36,246.06Zm-8,1.51a1.25,1.25,0,0,1-.8.6ZM59,248.83c.5-.1,1-.17,1.5-.29s.68-.2,1-.31h0l.5-.08h0l.51-.08.07-.22.49-.07.48-.07-.06.2a6.7,6.7,0,0,0,.9,0c1.49-.24,3-.47,4.45-.76C74.15,246,79.43,245,84.7,243.85c3.62-.77,7.21-1.61,10.81-2.45,2.06-.47,4.1-1,6.15-1.5s4-.93,6.06-1.39c1.64-.59,3.28-1.19,4.92-1.77a2.12,2.12,0,0,1,.44-.05l.29-.15.47-.07-.06.21a10.22,10.22,0,0,0,1.15-.33c1.34-.56,2.66-1.15,4-1.71a6.67,6.67,0,0,1,1-.26c-1.72,1.09-3.42,2.2-5.15,3.27a20,20,0,0,1-1.8.88,9.43,9.43,0,0,1-.9.66,89.62,89.62,0,0,1-9,4.25,71.49,71.49,0,0,1-17.68,4.47,3.56,3.56,0,0,1-.73,0,2.15,2.15,0,0,1,.48-.18c4.53-.84,8.92-2.23,13.34-3.51a29,29,0,0,0,4.72-1.88c1.11-.56,2.25-1.05,3.4-1.52s2.41-.89,3.6-1.36a8.9,8.9,0,0,0,1-.52,1.94,1.94,0,0,0-.54,0,55,55,0,0,0-7.46,2.93,26.74,26.74,0,0,1-4.92,2c-2,.59-4.06,1.16-6.08,1.76a103.13,103.13,0,0,1-16,3.12,9.82,9.82,0,0,1-3.2,0c.27-.07.53-.16.81-.21,2-.34,4-.64,6-1a104.58,104.58,0,0,0,13.26-3.23c6.1-1.95,12-4.29,18.08-6.44a6.49,6.49,0,0,0,1-.52c-.36.08-.73.13-1.08.24-1.11.34-2.21.69-3.32,1.05s-2,.77-2.94,1.17c-4.57,1.87-9.31,3.26-14,4.78a96.63,96.63,0,0,1-11.9,2.7,69.91,69.91,0,0,1-8.16,1.13c-2.07.13-4.13.35-6.2.48-1.46.1-2.93.12-4.4.14A6.9,6.9,0,0,1,59,248.83Zm61.74-22.53a9.4,9.4,0,0,1-2.25,0,33.44,33.44,0,0,0-10.23.31,57.14,57.14,0,0,1-5.71.75,28.3,28.3,0,0,0-5,.93L87.23,231.2a1.81,1.81,0,0,1-.4,0,10.62,10.62,0,0,1,1-.6c1.38-.6,2.76-1.2,4.16-1.75a47.14,47.14,0,0,1,15-3.27,73.18,73.18,0,0,1,12.29.47Zm9.1,2.36c-1.28,0-2.44.1-3.6.05a63.24,63.24,0,0,0-14.73,1.06c-2.66.52-5.34,1-8,1.51a73.78,73.78,0,0,0-9.38,2.54q-2.94,1-5.9,2A73,73,0,0,0,79.9,239c-1.88.88-3.76,1.75-5.69,2.49a84.34,84.34,0,0,0-8.45,3.82c-1.4.72-2.87,1.31-4.32,1.95a4.58,4.58,0,0,1-.85.19,5.49,5.49,0,0,1,.6-.48c1.94-1.15,3.86-2.36,5.85-3.42,4.56-2.44,9.15-4.8,13.72-7.2a7.43,7.43,0,0,0,.82-.56,8.77,8.77,0,0,0-1.25.43L69.21,242c-.34.18-.71.31-1.06.46a7.12,7.12,0,0,1,.81-.64c3.56-2.19,7.17-4.33,10.7-6.57a39.73,39.73,0,0,1,10-4.36c2.67-.8,5.36-1.53,8.06-2.25a39.09,39.09,0,0,1,3.87-.81c3-.45,6-.82,9-1.25a19.34,19.34,0,0,1,4.16-.23l9,.67c.78.06,1.56.17,2.34.26a1.8,1.8,0,0,1-1,.18c-1.65,0-3.31-.12-5-.15a6.8,6.8,0,0,0-1.09.15c.44.05.89.12,1.33.14,2.34.1,4.67.17,7,.27A4.34,4.34,0,0,1,129.83,228.66Zm3.25-122.73c-.75,1.46-1.5,2.9-2.22,4.37-.38.77-.66,1.6-1,2.38a102.86,102.86,0,0,1-6.3,11.1l-1.79,2.74a40.1,40.1,0,0,1,1.3-4.11c.33-.88.71-1.74,1.12-2.59a52.73,52.73,0,0,1,3.79-6.29c1-1.53,2-3.08,3.05-4.63.47-.72.92-1.46,1.41-2.18A8.36,8.36,0,0,1,133.08,105.93Zm2.17-3.12a2.5,2.5,0,0,1-1.08,1.32Zm-2.56,13.85a65.56,65.56,0,0,1-3.58,8.79c-1.24,2.5-2.41,5-3.62,7.54a41,41,0,0,0-2.22,4.57c-.66,1.93-1.39,3.83-2,5.77a67.51,67.51,0,0,0-2.51,8.81c-.09.47-.16,1-.24,1.42h-.1c0-.33,0-.66,0-1,.13-1.58.29-3.15.41-4.73a47.67,47.67,0,0,1,1.44-7.77,52.83,52.83,0,0,1,4.4-10.63c1.27-2.52,2.68-5,4-7.47a61.51,61.51,0,0,0,3.67-7.13c.5-1.38,1.1-2.72,1.64-4.09.15-.37.25-.76.37-1.15a4.17,4.17,0,0,1-.16,1.13C133.69,112.72,133.32,114.73,132.69,116.66Zm5.1-15.43a71.38,71.38,0,0,1-2.58,14.49c-1.33,4.78-2.86,9.52-4.42,14.23a144.78,144.78,0,0,1-5.3,13.65,47.87,47.87,0,0,0-4.3,13.41A74.69,74.69,0,0,0,121,169.7a.47.47,0,0,1-.1.1c0-.18-.06-.35-.08-.53a.69.69,0,0,0,0-.13c-.11-2.21-.23-4.41-.34-6.61,0-.51,0-1,0-1.53a8.37,8.37,0,0,1-.17-1,23.1,23.1,0,0,1,.27-3.32,50,50,0,0,1,1.21-6.55c.85-3.24,1.62-6.51,2.7-9.69a11.52,11.52,0,0,1,.69-1.67c1-1.78,2-3.54,3-5.32a20.09,20.09,0,0,0,1-1.89,52.86,52.86,0,0,0,2.3-6.62c.5-1.77,1.11-3.52,1.6-5.3.62-2.25,1.17-4.52,1.76-6.78.41-1.57.82-3.13,1.26-4.69.21-.72.51-1.41.76-2.12a3.65,3.65,0,0,0,.2-.64c.16-1,.31-2.09.47-3.13.07-.43.17-.86.25-1.29A1.13,1.13,0,0,1,137.79,101.23Zm-1.91,5.93a36.05,36.05,0,0,1-1.74,6.38C134.75,111.42,135,109.19,135.88,107.16Zm-11.16,46.67a33.62,33.62,0,0,0-2.07,6.09,13.38,13.38,0,0,1-.44,1.4,2.42,2.42,0,0,1,0-.8,27.7,27.7,0,0,1,1.85-7.44c1-2.33,1.9-4.67,3.08-6.91,1.38-2.6,2.6-5.28,4-7.89A66.3,66.3,0,0,0,135,128.9a58,58,0,0,0,2.15-11.31c.4-3.21.52-6.46.76-9.69,0-.6.11-1.21.17-1.81a7.4,7.4,0,0,1,.08.81,88.5,88.5,0,0,1-.62,12,55.42,55.42,0,0,1-2.12,10.52,81.57,81.57,0,0,1-3.64,9C129.36,143.52,126.84,148.58,124.72,153.83Zm-3.45,13a55,55,0,0,1,.7-11.89c.92-4.77,3.07-9.13,5-13.55s3.54-9.13,5-13.8,2.95-9.15,4.14-13.8a64,64,0,0,0,1.51-8.09c-.25,3.71-.48,7.42-.83,11.12-.23,2.43-.73,4.84-1.12,7.25a29.35,29.35,0,0,1-1.42,5.7c-.83,2.18-1.74,4.33-2.66,6.48-.38.9-.89,1.74-1.33,2.62-1.24,2.49-2.43,5-3.73,7.48a79.58,79.58,0,0,0-3.37,7.77,28.21,28.21,0,0,0-1.6,8.3C121.47,163.85,121.37,165.32,121.27,166.79Zm-.35,5.63a7.56,7.56,0,0,1-.44-1.17c-.29-1.31-.53-2.63-.81-3.94a7.94,7.94,0,0,0-.35-1c0,.14-.09.28-.13.41,0-.15,0-.31-.07-.47a8.3,8.3,0,0,1-.36-1.17c-.3-1.67-.61-3.34-.83-5a66.63,66.63,0,0,1-.51-12.86,37,37,0,0,1,.86-7.28c.8-3,1.32-6,2-9.06a5.57,5.57,0,0,1,.53-1.48c.67-1.26,1.33-2.54,2.11-3.74a89.76,89.76,0,0,0,5.93-10c.72-1.49,1.5-3,2.14-4.48a29.86,29.86,0,0,1,3.74-6.69,12.56,12.56,0,0,0,1.55-2.62l.38-.87a.52.52,0,0,1,0,.36c-1.41,4.14-2.41,8.41-4.19,12.42-.67,1.52-1.34,3-2.09,4.5s-1.7,3.11-2.55,4.66c-1.63,2.93-3.33,5.82-4.7,8.88-.69,1.55-1.46,3.07-2,4.66a48.84,48.84,0,0,0-2.76,12.08,40.28,40.28,0,0,0-.31,6.76q.27,3.67.62,7.32a2.35,2.35,0,0,0,.43,1.49c0-.41,0-.83,0-1.24-.06-.78-.13-1.57-.2-2.36a.12.12,0,0,0,0-.14q-.08-.72-.12-1.44a25.93,25.93,0,0,1,1.13-9.82c.91-2.83,1.92-5.63,2.82-8.47a39.53,39.53,0,0,1,2.86-6.74c1.25-2.32,2.28-4.76,3.5-7.09a86.19,86.19,0,0,0,4.38-10.41c.09-.28.21-.54.31-.81-.35,1.59-.7,3.17-1.15,4.72-.62,2.13-1.26,4.27-2,6.36a58.42,58.42,0,0,1-2.38,5.86c-.77,1.62-1.82,3.12-2.69,4.7a16.43,16.43,0,0,0-1.25,2.65c-.6,1.74-1.16,3.5-1.64,5.28-.68,2.47-1.29,5-1.89,7.45-1.19,4.95-.89,9.95-.43,14.95a1.11,1.11,0,0,0,0,.17,17,17,0,0,0,.57,3.16c0,.1,0,.2,0,.3C120.9,171.58,120.91,172,120.92,172.42Zm27.56-28c-.56,1.37-1.06,2.78-1.72,4.1-1,2.08-2.24,4.09-3.34,6.15s-2.51,3.86-3.31,6c-.18.5-.42,1-.64,1.45a26.37,26.37,0,0,0-2.3,7.07,65.56,65.56,0,0,0-.87,12.83c.11,3,.26,5.94.38,8.91,0,.14,0,.27,0,.41a.33.33,0,0,1-.26-.28,31.17,31.17,0,0,1-1.08-6.45c-.07-3.2-.16-6.4-.25-9.6a32.88,32.88,0,0,1,1.23-9.15,29.44,29.44,0,0,1,3.76-8.55c2.5-3.95,5-7.87,7.56-11.8C147.9,145.19,148.2,144.83,148.48,144.46Zm.35,1.52c-1.36,3.27-2.78,6.52-4.17,9.77-.84,2-1.7,3.95-2.52,5.93s-1.59,3.75-2.23,5.68a49.56,49.56,0,0,0-1.85,8.62,45,45,0,0,0-.45,11.71c.09.79.09,1.59.17,2.37.17,1.69.37,3.37.55,5.06.07.69.13,1.38.19,2.07a9.27,9.27,0,0,1-1.28-4c-.17-2.86-.21-5.73-.41-8.58A71,71,0,0,1,137,174a32.2,32.2,0,0,1,2.75-11.37,38,38,0,0,1,3.08-5.9,17.06,17.06,0,0,0,1-1.75c.77-1.43,1.52-2.86,2.28-4.29.54-1,1.11-2.06,1.61-3.11s.8-1.95,1.22-2.92c.2-.48.46-.93.69-1.39A16.4,16.4,0,0,1,148.83,146Zm.46,6.49c-1.25,3.72-2.47,7.44-3.74,11.15a97.64,97.64,0,0,0-4.15,15.95c-.51,3.12-1.12,6.23-1.35,9.39-.19,2.74-.32,5.49-.47,8.24,0,.39-.05.79-.07,1.19a2.57,2.57,0,0,1-.43-1.07,23.66,23.66,0,0,1-.47-4.82,9.71,9.71,0,0,0-.11-1.21l-.16.14-.05-.21c-.12-1.46-.29-2.92-.35-4.38-.07-1.65-.12-3.31-.05-5a64.55,64.55,0,0,1,1.13-9,44.23,44.23,0,0,1,3-9.92c1.49-3.38,2.93-6.77,4.37-10.17.77-1.84,1.45-3.73,2.25-5.55a25.73,25.73,0,0,0,1.75-5.48,7.61,7.61,0,0,1,.28-.89,2.47,2.47,0,0,1,.14,1.35,71.22,71.22,0,0,1-2.51,9.62,27.61,27.61,0,0,1-1.07,3c-.91,2-1.88,3.95-2.85,5.9a32,32,0,0,0-2.22,5.31c-.23.8-.37,1.62-.59,2.42-.5,1.89-1,3.77-1.52,5.67a20.26,20.26,0,0,0-.55,2.77c-.44,4.12-.89,8.24-1.06,12.38a8,8,0,0,0,.1,1.09,6.68,6.68,0,0,0,.2-1c.24-2.77.45-5.55.7-8.33a42.34,42.34,0,0,1,1-7.26c.48-1.82,1-3.63,1.46-5.46a39.2,39.2,0,0,1,3.82-9.51,45.5,45.5,0,0,0,4.37-11.72c.1-.44.22-.88.34-1.31s.25-.79.37-1.18A40,40,0,0,1,149.29,152.47Zm.4,5.84c-.75,1.85-1.66,3.63-2.47,5.46s-1.51,3.44-2.2,5.2a67.72,67.72,0,0,0-2.18,7,29.29,29.29,0,0,0-.67,3.09c-.29,1.86-.48,3.73-.78,5.59-.27,1.66-.63,3.32-1,5,.06-.89.07-1.79.19-2.68.35-2.45.75-4.9,1.15-7.35s.94-4.88,1.58-7.28c1.53-5.71,3.66-11.23,5.45-16.86a47.68,47.68,0,0,0,1.63-5.63c.21-1.06.47-2.11.7-3.16a23.89,23.89,0,0,1-.54,8.38A23.39,23.39,0,0,1,149.69,158.31Zm-9.1,44.89a5.72,5.72,0,0,1-.69-2.6,26.19,26.19,0,0,1,.22-4.85c.34-2.54.66-5.07,1-7.61.27-1.86.63-3.71.87-5.58a53.31,53.31,0,0,1,1.21-6.77,73.39,73.39,0,0,1,4-11.16,78.32,78.32,0,0,0,3.55-8.16,40.67,40.67,0,0,1-2.46,9.87c-1,2.37-1.92,4.75-2.8,7.15A119.73,119.73,0,0,0,142,185.64a46.91,46.91,0,0,0-1.31,13.45C140.69,200.4,140.61,201.71,140.59,203.2Zm7.78,18.44a1,1,0,0,1-.17-.23c-1.19-2.47-2.39-4.94-3.54-7.43a18.17,18.17,0,0,1-.73-2.23l-.05-.1.06.09a7.67,7.67,0,0,1,.64.89c.91,1.89,1.85,3.76,2.68,5.68C147.72,219.38,148,220.53,148.37,221.64Zm12.71,3.88a77.91,77.91,0,0,0-1.63,9.58c-.07.73-.21,1.45-.32,2.18a52.75,52.75,0,0,1,.09-6.89,68.2,68.2,0,0,1,2.1-11,91.46,91.46,0,0,1,5.16-14.84,45.49,45.49,0,0,1,6.33-10.14c2.13-2.64,4.46-5.11,6.67-7.68,1-1.2,2-2.47,3-3.71l1-1.26a15.37,15.37,0,0,1-.62,1.64q-1.11,2.22-2.3,4.41a32.34,32.34,0,0,1-4.82,6.95,34.5,34.5,0,0,0-3.35,4.26,44,44,0,0,0-2.89,4.85,86,86,0,0,0-4.7,9.77A98.76,98.76,0,0,0,161.08,225.52Zm1.65-19.58c-1.86,6.94-3.45,13.92-4.89,21a1.57,1.57,0,0,1-.12-.66,49.15,49.15,0,0,1,.86-9.2,30.62,30.62,0,0,1,2.2-7.44A29.84,29.84,0,0,1,162.73,205.94Zm17-22.07a20,20,0,0,1-2.85,3.87c-.43.51-.92,1-1.38,1.44a.46.46,0,0,1,.12-.44c1.17-1.46,2.34-2.92,3.53-4.37A3.54,3.54,0,0,1,179.75,183.87Zm.74-.89c-.25.3-.5.59-.74.89A1.33,1.33,0,0,1,180.49,183Zm4.83-5.77c-.52,1.08-.86,2-1.37,2.83a41.45,41.45,0,0,1-4.57,6.3c-1.41,1.52-2.75,3.1-4.17,4.61a53.13,53.13,0,0,0-6.78,9,36.6,36.6,0,0,0-3.11,6.27c-.6,1.58-1.26,3.15-1.81,4.75-.72,2.1-1.45,4.2-2,6.35-.63,2.32-1.11,4.68-1.65,7a40.86,40.86,0,0,0-1.16,9.4,12.81,12.81,0,0,1-.17,1.74,3.38,3.38,0,0,1-.17-.6c-.12-1.12-.21-2.25-.34-3.37a13.18,13.18,0,0,1,.34-4.38c.28-1.28.56-2.57.83-3.86a54.12,54.12,0,0,1,1.36-6.41,13.89,13.89,0,0,0,.62-2.64,34.5,34.5,0,0,1,1.24-5.39c.38-1.26.77-2.52,1.16-3.78a8.85,8.85,0,0,1,1.44-2.92c1.47-1.91,2.92-3.84,4.43-5.71.92-1.14,1.94-2.2,2.94-3.28,1.74-1.88,3.5-3.74,5.25-5.61a10.37,10.37,0,0,0,.77-1c1.94-2.73,3.86-5.48,5.8-8.21A2.92,2.92,0,0,1,185.32,177.21Zm-3.51,11.33c-1.19,2.31-2.34,4.64-3.72,6.85-2,3.26-4,6.55-5.77,10-1.92,3.79-3.95,7.54-5.85,11.34a44.73,44.73,0,0,0-2.26,5.29c-1.05,3-2,6-2.89,9.05a30,30,0,0,0-.94,4.07c-.34,2.16-.56,4.33-.83,6.5a5.83,5.83,0,0,1-.16-2.66c.15-1.46.38-2.91.53-4.37a67,67,0,0,1,2.31-12.09c1-3.29,2.16-6.51,3.29-9.75a22.15,22.15,0,0,1,1.18-2.69c1.1-2.18,2.24-4.35,3.39-6.51a43.46,43.46,0,0,1,6.37-9,22.26,22.26,0,0,0,2.41-3.13,56.46,56.46,0,0,0,5.4-10.41c.28-.72.62-1.42.93-2.13a.83.83,0,0,1,0,.47A54.17,54.17,0,0,1,181.81,188.54Zm1.54-.53c-.06.22-.14.43-.22.64-.33.88-.65,1.77-1,2.64-.67,1.64-1.28,3.31-2.07,4.89a185.61,185.61,0,0,1-9.82,16.89,46.92,46.92,0,0,0-4.64,9.53c-.52,1.45-.93,2.94-1.39,4.41a106.28,106.28,0,0,0-2.85,10.82,28.28,28.28,0,0,0-.74,5,17.72,17.72,0,0,1-.38,2.6,5.75,5.75,0,0,1-.4-2.67c.14-1.73.28-3.46.5-5.18a35.38,35.38,0,0,1,1.15-6.21c.86-2.77,1.75-5.54,2.61-8.31a42.54,42.54,0,0,1,2.52-6c1-2.17,2.17-4.3,3.32-6.42,1.93-3.58,3.83-7.18,5.9-10.68s4.14-6.83,5.84-10.45a43.49,43.49,0,0,0,2.52-5.92c.24-.79.58-1.54.87-2.31l.18,0c-.07.29-.13.58-.21.86Zm-.19,4.62a47.67,47.67,0,0,1-3.27,7.56c-1.19,2.35-2.54,4.62-3.84,6.91s-2.78,4.83-4.13,7.26c-1,1.75-1.8,3.58-2.85,5.27a55.44,55.44,0,0,0-5.75,12.61c-.36,1.11-.7,2.22-1,3.33.33-1.54.65-3.09,1.09-4.6A83.87,83.87,0,0,1,167,220c.7-1.54,1.39-3.09,2.19-4.58.62-1.16,1.43-2.22,2.1-3.35,2.33-4,4.87-7.79,7-11.86a47.19,47.19,0,0,0,3.21-6.59c.39-1.18.86-2.33,1.36-3.47a20.05,20.05,0,0,0,1.12-3.55c.2-.91.54-1.78.82-2.67l.15.06a3.2,3.2,0,0,1,0,.44A43.87,43.87,0,0,1,183.16,192.63Zm-1.11,8.06c-.77,1.56-1.51,3.12-2.32,4.65A31,31,0,0,1,177,210a65.44,65.44,0,0,0-8.14,13.65c-1.4,3.17-2.78,6.35-4.17,9.53-.25.59-.56,1.15-.77,1.75-.72,2-1.4,4-2.09,6-.16.46-.3.93-.45,1.4h-.13c.46-2.05.84-4.13,1.4-6.16.62-2.26,1.34-4.49,2.13-6.69a40.94,40.94,0,0,1,2.9-6.49c.77-1.34,1.56-2.67,2.3-4,1.41-2.62,2.77-5.26,4.33-7.8,1.46-2.38,2.79-4.83,4.18-7.25a60.71,60.71,0,0,0,5.46-12.14c0-.14.11-.28.17-.42a24.89,24.89,0,0,1-2,9.34Zm-19.44,39.48c-.46,1.86-.93,3.71-1.4,5.57C161.12,243.74,162.08,242,162.61,240.17Zm9.29-18.52a5.92,5.92,0,0,1,1.34-2.05A6,6,0,0,1,171.9,221.65Zm-6.35,10.71A9.76,9.76,0,0,1,166,231c.7-1.58,1.4-3.17,2.12-4.74,1.06-2.29,2.06-4.61,3.24-6.83a72.54,72.54,0,0,1,5.86-9,20,20,0,0,0,1.51-2.24c1.1-2.06,2.13-4.15,3.2-6.23.13-.24.29-.47.55-.87a24.33,24.33,0,0,1-2.92,7.55c-1.26,2.22-2.61,4.4-4,6.58-.6,1-1.28,1.95-1.91,2.93q-1.64,2.56-3.24,5.16a5.42,5.42,0,0,0-.29.74h0l-.82,1.42Zm4.15,54.47a5.88,5.88,0,0,1,.64,2.47,33.73,33.73,0,0,1,1.13,6,16.71,16.71,0,0,1-.6-1.94c-.24-1.33-.41-2.67-.6-4Zm-20.23-35.38a4.7,4.7,0,0,1,1.24,2A4.33,4.33,0,0,1,149.47,251.45Zm-.78-1.17a1.05,1.05,0,0,1,.63.88Zm-9.9-13.79a.71.71,0,0,1,.23.18c1,1.51,2,3,2.94,4.55a2.87,2.87,0,0,1-.45-.39A17.32,17.32,0,0,1,138.79,236.49Zm-11.48-14.78a11.71,11.71,0,0,1,3.33,3.64l.47.61a.75.75,0,0,1-.49-.59l-3.25-3.48S127.33,221.78,127.31,221.71Zm-2.2-6.18a9.18,9.18,0,0,1-1.53-2.88c-.45-1.35-1-2.69-1.4-4.05a37,37,0,0,1-1.1-3.68,97.35,97.35,0,0,1-1.77-10.47,28.91,28.91,0,0,0-2.21-8.85c-.45-1-.87-2.08-1.3-3.13l-.26-.66a1.88,1.88,0,0,1,.59.72,50,50,0,0,1,5.09,15.15c.55,3,1.15,6.07,2,9a8.05,8.05,0,0,0,.43,1c-.06-.44-.09-.89-.19-1.32a60.56,60.56,0,0,1-1.59-7.28,42.1,42.1,0,0,0-1.77-7.93c-.42-1.25-.77-2.52-1.15-3.79a3.91,3.91,0,0,1-.08-.61c.22.38.46.74.65,1.13a44.06,44.06,0,0,1,2.38,6,69.71,69.71,0,0,1,2.23,9.79c.46,2.86,1,5.72,1.43,8.58a3,3,0,0,1,0,.52c-.21-.3-.43-.6-.65-.89a7.94,7.94,0,0,0,.26,1.07c.52,1.37,1.08,2.72,1.61,4.09a7.67,7.67,0,0,1,.22.92C126.36,217.18,125.75,216.34,125.11,215.53Zm-13.73-36.79a1.27,1.27,0,0,0-.37-1.08c0-.23,0-.47,0-.7a6,6,0,0,1,.54.68,24.82,24.82,0,0,1,1.94,4.3c.41,1.13.88,2.24,1.37,3.33a23,23,0,0,1,1.71,5.24c.23,1.25.52,2.49.79,3.74.3,1.43.6,2.86.88,4.3a7.45,7.45,0,0,1,.08,1.06,4,4,0,0,1-.27-.55c-.7-2.38-1.38-4.77-2.09-7.15-.35-1.19-.71-2.38-1.1-3.55-.62-1.86-1.26-3.7-1.91-5.55-.11-.31-.29-.59-.43-.89a3.86,3.86,0,0,0,.1.77q.57,1.89,1.17,3.78c.72,2.3,1.46,4.59,2.15,6.9.89,3,1.75,6,2.61,9a7.31,7.31,0,0,1,.18,1.14c-.14-.28-.29-.56-.41-.85-1.4-3.38-2.81-6.75-4.17-10.14A23.22,23.22,0,0,1,113,189c-.73-3.34-1.37-6.71-2-10.06a7.09,7.09,0,0,1,0-.71Zm.35-1.77a10.67,10.67,0,0,1,2.58,3.35c.91,2,1.76,4,2.62,6a26.36,26.36,0,0,1,1.95,7.64c.35,3.35,1,6.64,1.6,9.93.07.39.09.79.14,1.18a2.85,2.85,0,0,1-.33-.52,26,26,0,0,1-1.49-5c-.33-1.77-.71-3.53-1.07-5.3-.24-1.22-.54-2.42-.74-3.64a21.28,21.28,0,0,0-1.77-5.57c-.47-1-.9-2.07-1.29-3.12a25.39,25.39,0,0,0-2-4.42A2.68,2.68,0,0,1,111.73,177Zm9.73,31.8a1.32,1.32,0,0,1,0,.4,1.1,1.1,0,0,1-.2-.23,27.15,27.15,0,0,1-2.21-6.1.79.79,0,0,1,0-.3Zm-64.89,5.3c2,.28,3.94.66,5.89,1,2.18.42,4.35.92,6.55,1.26,3.12.49,6.26.88,9.4,1.29,6.72.87,13.49,1.31,20.25,1.76,3.87.25,7.75.17,11.61.58a54.7,54.7,0,0,0,7.68-.12c.42,0,.83,0,1.25,0a48.25,48.25,0,0,1-7.75,1.12,6.07,6.07,0,0,0-.85.16h0a2.62,2.62,0,0,0-.54-.12c-1.53,0-3,0-4.58.07a2.39,2.39,0,0,0-.62.17l1.35,0,3.55.07a2.14,2.14,0,0,1-.47.2c-1.78.33-3.55.71-5.34,1a61.57,61.57,0,0,1-12.29.38,83.12,83.12,0,0,1-13.89-1.77,103.14,103.14,0,0,1-11.4-3.32s0,0-.09-.09c2.12.37,4.19.8,6.27,1.1,3.58.52,7.15,1.06,10.71,1.73a84.43,84.43,0,0,0,12.81,1.22,6.78,6.78,0,0,0,1.09-.14c-.37,0-.74-.11-1.11-.14-2.77-.23-5.55-.43-8.33-.67-2.14-.19-4.24-.64-6.35-1-2.33-.43-4.69-.73-7-1.11-2.71-.45-5.43-.88-8.12-1.41a40.66,40.66,0,0,1-5-1.31C59.62,215.48,58.11,214.73,56.57,214.07Zm-6.3-2.49c.57,0,1,.06,1.37.1,2.62.25,5.22.71,7.86.85,3.23.18,6.45.55,9.67.89,2.7.28,5.39.62,8.08,1,2,.27,3.94.61,5.91.91,3.13.47,6.26.91,9.39,1.4s6,.86,9.08,1.12c4.05.35,8.1.75,12.15,1.14.69.07,1.37.22,2,.34a.62.62,0,0,1-.43.22,46.28,46.28,0,0,1-6.66-.09c-1.46-.16-2.93-.23-4.4-.29-1.69-.07-3.39,0-5.08-.14-3.27-.2-6.55-.41-9.81-.71-4.54-.43-9.07-.9-13.6-1.44-2.84-.33-5.67-.79-8.49-1.26-2.3-.39-4.58-.93-6.88-1.32A50.38,50.38,0,0,1,50.27,211.58Zm65.12,7.28c-2.69-.31-5.38-.68-8.08-.94-4.9-.48-9.82-.78-14.7-1.6-5.23-.89-10.49-1.66-15.75-2.35-4.81-.63-9.65-1.11-14.48-1.61-2.2-.23-4.42-.33-6.64-.5a6.68,6.68,0,0,1-.87-.17.92.92,0,0,1,.58-.18c6.28.09,12.57.1,18.84.7,3.26.32,6.53.53,9.79.88,2.73.29,5.44.76,8.17,1.08a99.32,99.32,0,0,1,12.21,2.25c1.64.41,3.32.68,5,1l6.55,1.41A3,3,0,0,1,115.39,218.86Zm-26.15-14a108.38,108.38,0,0,0-11.68-.6A36.35,36.35,0,0,1,89.24,204.86Zm24.84,8.45a.79.79,0,0,1-.59,0,60.49,60.49,0,0,0-9-2.17c-1.85-.34-3.71-.65-5.55-1-2.81-.54-5.6-1.2-8.46-1.47s-5.68-.67-8.53-1a58,58,0,0,0-9.59.16c-4.92.36-9.83.82-14.75,1.22-.44,0-.89,0-1.34,0l-.5.08a1.59,1.59,0,0,1-1.17.1l.54-.3-.27-.3a51.76,51.76,0,0,1,6.49-1.78q4.73-.84,9.46-1.63a22.76,22.76,0,0,1,2.47-.28,93.21,93.21,0,0,1,15.22.27,44.25,44.25,0,0,1,10.69,2.25c1.21.42,2.42.84,3.61,1.3q4.13,1.54,8.23,3.14a2.24,2.24,0,0,1,.47.31Zm7.47,4.32-.07.12-6.42-1.69a27.75,27.75,0,0,0,4.86,1.47,8.65,8.65,0,0,1,3.55,1.4l-.12.23a14.12,14.12,0,0,0-2.59-.33.28.28,0,0,0-.24.14c-.82-.12-1.64-.21-2.47-.3-2.57-.51-5.15-1-7.72-1.58l-9.27-2c-.89-.19-1.76-.44-2.65-.57-3.8-.56-7.59-1.19-11.41-1.61-5.27-.57-10.56-1-15.84-1.44-5.6-.46-11.21-.35-16.82-.35l-4.33,0a2.57,2.57,0,0,1,.58-.14c1.13-.07,2.25-.13,3.38-.16,4.17-.13,8.35-.22,12.52-.36a73.21,73.21,0,0,1,7.55-.2c2.7.18,5.41.34,8.1.58,6.22.56,12.4,1.39,18.56,2.43a18.15,18.15,0,0,0,1.81.15,8.86,8.86,0,0,0-1.12-.31c-2.56-.42-5.12-.87-7.69-1.23-5-.71-10.07-1.35-15.15-1.72a71.17,71.17,0,0,0-8-.36c-4.37.17-8.73.36-13.1.5-2,.07-4,.05-6,.07a5.42,5.42,0,0,1,1.09-.32c2.88-.33,5.77-.65,8.65-.93,5.11-.49,10.21-.95,15.34-1,2,0,4.08,0,6.1.15,2.51.2,5,.58,7.52.84a59.29,59.29,0,0,1,6.36,1c2.1.44,4.22.79,6.34,1.16a71.61,71.61,0,0,1,9.79,2.27c.83.27,1.64.58,2.48.81a19.63,19.63,0,0,1,5.77,2.79C121.11,217.28,121.33,217.46,121.55,217.63Zm-.8-3a2.12,2.12,0,0,1,.43.28c1.27,1.24,2.52,2.48,3.77,3.73a1.7,1.7,0,0,1,.24.44c-1-.86-2-1.69-2.9-2.59A21.41,21.41,0,0,1,120.75,214.67ZM101.57,198l.85.7A1.51,1.51,0,0,1,101.57,198Zm-3.92-3.4a44.26,44.26,0,0,1,3.56,2.92,1.55,1.55,0,0,1,.28.39c-1.13-.93-2.27-1.85-3.4-2.79A4.47,4.47,0,0,1,97.65,194.58ZM88.36,188c.24-.1.34-.18.42-.16s.2.12.3.18l-.07.15Zm-13.27-.82c-1.7-.35-3.39-.76-5.1-1a45.68,45.68,0,0,1-7-1.76c-3.09-1-6.2-1.9-9.32-2.78a59.47,59.47,0,0,1-6.24-2l-4.83-1.92c-1.26-.5-2.53-1-3.79-1.45l0-.15c3.22.93,6.45,1.84,9.66,2.81,1.58.48,3.12,1.11,4.69,1.64q4.6,1.57,9.31,2.78c3.32.84,6.53,2.12,9.89,2.84l5.17,1.17c.25.06.49.16.74.23A12.06,12.06,0,0,1,75.09,187.21Zm-45-13.94c2.13.69,4.18,1.56,6.23,2.4s4.25,1.75,6.39,2.6c1.08.43,2.19.81,3.28,1.23s1.87.81,2.84,1.12c1.61.5,3.26.9,4.89,1.38,3,.9,6,1.79,9,2.77a44.09,44.09,0,0,0,6.89,1.77c1.16.19,2.31.51,3.46.77a6.65,6.65,0,0,1-1.18,0c-2.13-.25-4.28-.4-6.38-.84-3.42-.73-6.82-1.6-10.21-2.51a108.31,108.31,0,0,1-13.07-4.71,83.37,83.37,0,0,1-8.3-3.86C32.59,174.71,31.33,174,30.06,173.27Zm-5.94-3.91c1.12.34,2.22.72,3.32,1.13,2.61,1,5.16,2.1,7.87,2.82,3.31.88,6.62,1.78,9.91,2.75s6.85,2.11,10.25,3.22c2.66.86,5.28,1.8,7.93,2.67,1.51.5,3,.93,4.55,1.38,2.06.59,4.12,1.2,6.2,1.75a28.47,28.47,0,0,0,3.74.85A47.43,47.43,0,0,1,86,188c-1.27,0-2.55,0-3.82-.12a26.59,26.59,0,0,1-2.79-.46c-1.92-.38-3.86-.69-5.74-1.2-3.35-.9-6.67-1.92-10-2.88L59.5,182.2c-1.48-.44-3-.87-4.43-1.35-3.08-1-6.14-2.09-9.22-3.09-4.24-1.36-8.49-2.67-12.73-4a7.69,7.69,0,0,1-.94-.38c-1.85-.86-3.69-1.72-5.52-2.61A13.1,13.1,0,0,1,24.12,169.36Zm3.82-1.16a6.6,6.6,0,0,1,.77,0c2.17.16,4.35.29,6.52.52a62.71,62.71,0,0,1,9,1.47c1.39.35,2.78.68,4.16,1.05,2.73.71,5.48,1.4,8.19,2.19,1.58.47,3.12,1.11,4.68,1.68.46.16.93.31,1.38.49,2.34.95,4.68,1.89,7,2.88,1.52.64,3,1.32,4.52,2,1.79.88,3.54,1.85,5.31,2.75,1.61.83,3.25,1.6,4.85,2.43A4.07,4.07,0,0,1,86,186.9c-.91-.4-1.59-.73-2.29-1-3-1.06-5.83-2.28-8.73-3.44-3.5-1.4-7-2.72-10.63-3.86-7.65-2.43-15.24-5.06-23-7-2.19-.56-4.36-1.19-6.55-1.75-1.24-.32-2.5-.56-3.75-.83l-3-.64Zm.37.74c2.28.5,4.57,1,6.84,1.51,2.05.49,4.09,1.05,6.12,1.63q4.4,1.23,8.79,2.54c1.52.45,3,1,4.52,1.45,5.91,1.69,11.71,3.71,17.49,5.8.29.1.56.22.84.34l7.45,3,3.26,1.27v.06c-.78-.15-1.55-.26-2.32-.45-4-1-8-2.15-11.94-3.45l-21.7-7.13-2-.69-15.79-5.17c-.89-.29-1.79-.56-2.68-.84A6.59,6.59,0,0,1,28.31,168.94Zm-5.93-.73a3.54,3.54,0,0,1,1.46.13c1.63.47,3.24,1,4.88,1.44,2.27.58,4.48,1.33,6.69,2.09,5,1.71,10,3.34,15,5L68.89,183l.53.19,0,.11c-1.85-.53-3.71-1-5.54-1.59-3.79-1.24-7.56-2.58-11.35-3.83-2.4-.78-4.83-1.47-7.26-2.17-3.11-.9-6.24-1.73-9.35-2.65-1.95-.58-3.88-1.22-5.8-1.9-2.34-.84-4.65-1.75-7-2.63Zm4.71-1.47A90.45,90.45,0,0,1,44.2,169l3.76.79c1.73.37,3.5.64,5.19,1.14A92.6,92.6,0,0,1,64.88,175c1.78.8,3.64,1.45,5.41,2.28,2.56,1.19,5.09,2.45,7.59,3.75a80.06,80.06,0,0,1,8.79,5.1c.42.29.84.6,1.25.9a1,1,0,0,1-.79.07,3.6,3.6,0,0,1-.76-.48,29,29,0,0,0-4.3-2.47c-1.93-.94-3.82-2-5.74-2.91s-3.9-2-5.9-2.84-4.14-1.62-6.19-2.48a79.58,79.58,0,0,0-9.79-3.46c-1-.28-2.06-.49-3.07-.8a87,87,0,0,0-13.54-3.07,70.91,70.91,0,0,0-11.37-.84,16.5,16.5,0,0,1-5.08-.75,1.42,1.42,0,0,1,.29-.1C23.48,166.86,25.29,166.7,27.09,166.74ZM81.41,182a9.63,9.63,0,0,1,1.82,1.55c-1.51-.77-3-1.6-4.48-2.38-2.23-1.17-4.47-2.34-6.74-3.44-1.62-.78-3.3-1.45-5-2.16a68.18,68.18,0,0,0-7.56-3c-1.16-.34-2.28-.79-3.44-1.14-1.69-.51-3.38-1.06-5.1-1.44-3.31-.73-6.64-1.39-10-2-2.4-.44-4.83-.77-7.25-1.14L32,166.57a5.92,5.92,0,0,1,.93-.12,86.66,86.66,0,0,1,23.32,3.2A78.4,78.4,0,0,1,69,174.55,102.41,102.41,0,0,1,81.41,182ZM64.33,162.55c.77.84,1.57,1.66,2.31,2.52a200.38,200.38,0,0,0,15.58,16.34,6.31,6.31,0,0,1,.53.63A15.53,15.53,0,0,1,81,180.9c-.82-.71-1.6-1.48-2.36-2.27-3.39-3.52-6.76-7.07-10.17-10.59a34.66,34.66,0,0,1-3.92-4.95A2.42,2.42,0,0,1,64.33,162.55Zm-15-9.31a11.74,11.74,0,0,1,4.17.8Zm.56-.93c-2.05-.62-4.1-1.29-6.17-1.85-3.43-.92-6.75-2.17-10.07-3.42-2.36-.89-4.68-1.88-7-2.86-1.74-.72-3.49-1.43-5.18-2.26-2.64-1.29-5.22-2.69-7.85-4a52.58,52.58,0,0,1-6.28-3.57c-.21-.14-.4-.3-.59-.45a5.81,5.81,0,0,1,1.83.55c1.31.58,2.61,1.19,3.91,1.78l6.81,3c2,.89,4,1.8,6,2.54a67.62,67.62,0,0,1,7.09,3,69.12,69.12,0,0,0,9.09,3.73c.57.18,1.15.37,1.71.59l10.69,4.32,0,.11ZM10.32,138.18a4.48,4.48,0,0,1,.67.28c2,1.29,4.08,2.57,6.09,3.9a18.37,18.37,0,0,0,3.42,2,25,25,0,0,1,2.5,1.06,27.76,27.76,0,0,0,5.14,2c2,.59,4,1.22,6,1.79,2.82.82,5.64,1.64,8.48,2.4,2.17.58,4.36,1.08,6.54,1.62a1,1,0,0,1-.3.05,59,59,0,0,1-14.31-2.57c-1.43-.47-2.85-1-4.25-1.53-2.07-.81-4.15-1.6-6.18-2.51a68.72,68.72,0,0,1-12-7C11.49,139.19,10.91,138.67,10.32,138.18ZM4.8,133.12l1.1.68c1.72,1.08,3.41,2.23,5.18,3.21C14,138.62,17,140.15,20,141.66c1.64.83,3.32,1.61,5,2.33,2,.88,4.14,1.62,6.17,2.52,3.11,1.38,6.35,2.38,9.53,3.55a8.7,8.7,0,0,0,.87.26l6.52,1.87c.36.1.7.24,1,.36a13.93,13.93,0,0,1-2.91-.48c-2.77-.72-5.56-1.39-8.31-2.19-3.48-1-6.93-2.1-10.38-3.18-.94-.3-1.85-.65-2.76-1-1.15-.47-2.27-1-3.41-1.49a21.76,21.76,0,0,1-4.26-2.33c-1.32-.93-2.7-1.78-4.07-2.65-1.75-1.1-3.52-2.17-5.27-3.29A11.38,11.38,0,0,1,4.8,133.12Zm-1.91-2a16.13,16.13,0,0,1,2.07.54c4.36,1.46,8.71,2.94,13.07,4.41.64.22,1.29.44,1.91.69,2,.83,4,1.69,6,2.53a62.61,62.61,0,0,1,10,5.24c1,.62,2,1.21,3,1.75,1.3.69,2.63,1.3,3.94,1.95v.14c-.11,0-.22,0-.33-.05a67.3,67.3,0,0,1-8.44-3.23c-.75-.35-1.47-.77-2.22-1.12a86.2,86.2,0,0,0-8.61-3.43c-.43-.15-.84-.34-1.25-.53-1.88-.86-3.76-1.74-5.65-2.59-1.58-.71-3.18-1.37-4.76-2.08a58,58,0,0,0-6-2.56A6.74,6.74,0,0,1,2.89,131.15ZM54.7,152.83,52.65,152l.55.64c-1.44-.59-2.74-1.06-4-1.65-2.52-1.2-5-2.48-7.51-3.68a43,43,0,0,1-6.57-3.73c-.49-.35-1-.64-1.54-.94a81.86,81.86,0,0,0-8.53-4.15c-3.3-1.39-6.63-2.69-10-3.77-3-1-6.12-1.9-9.18-2.85l-1.12-.38a16.1,16.1,0,0,1,3.8.5c3.1.81,6.06,2.05,9.08,3.11l.31.14,4.93,2,.74.28,4,1.66c1,.42,2,.88,3,1.32l4.23,1.86c1.45.65,2.94,1.21,4.31,2,3.62,2,7.19,4.11,10.78,6.17.33.18.67.34,1,.51a9.84,9.84,0,0,0-1-.82c-2.08-1.23-4.17-2.42-6.25-3.65A53.17,53.17,0,0,0,35,142.09a23.71,23.71,0,0,1-2.6-1.08c-2.79-1.43-5.7-2.58-8.59-3.77-2.47-1-5-1.94-7.47-2.91-1.19-.46-2.37-.94-3.55-1.41a27.6,27.6,0,0,1,2.87.61c1.71.48,3.4,1,5.1,1.5a104.72,104.72,0,0,1,16.54,6.4,80.9,80.9,0,0,1,17,10.94A4.48,4.48,0,0,1,54.7,152.83Zm3.19,2.75-3.35-1.42C57.08,154.68,57.28,154.78,57.89,155.58Zm-3-8.66c-1.14-1.81-2.28-3.62-3.41-5.45-.45-.72-.86-1.46-1.3-2.21.11,0,.16-.07.18,0a16.82,16.82,0,0,1,2.81,2.72c.17,0,.4,0,.49.15a4.51,4.51,0,0,1,.76,1.1q1.88,4.35,3.68,8.74a4.93,4.93,0,0,1,.22.86c.16.44.31.87.46,1.3a2.09,2.09,0,0,1-.52-1.27c-1-2.07-1.9-4.14-2.87-6.21-.4-.84-.84-1.65-1.26-2.48a7.35,7.35,0,0,0,.2.84c.29.79.62,1.57.94,2.34A2,2,0,0,1,54.92,146.92Zm-1.17-6.84a1.11,1.11,0,0,1,.4.09l5.44,1.91c.6.22,1.22.39,1.81.65a119.41,119.41,0,0,1,11.26,5.77c3.32,1.86,6.52,3.93,9.77,5.89A74.3,74.3,0,0,0,95,160.61c1.56.57,3.06,1.28,4.57,2,2.15,1,4.29,2,6.52,3.08l-.92-.24c-2.38-.7-4.78-1.37-7.15-2.12-1.66-.52-3.28-1.15-4.91-1.73a54.88,54.88,0,0,1-6.6-2.95c-2.58-1.32-5-3-7.56-4.3-3.08-1.59-6-3.43-9.13-5-2.11-1.06-4.1-2.39-6.21-3.47C60.19,144.12,57,142.06,53.75,140.08Zm-1.46,5.26c-1.23-1.53-2.42-3.08-3.67-4.59-2.77-3.33-5.66-6.56-8.15-10.12-1.08-1.55-2.19-3.08-3.34-4.57-4.16-5.37-8.07-10.91-11.93-16.5-.43-.63-.83-1.28-1.25-1.93a6.38,6.38,0,0,1,.86.78c1.58,1.91,3.16,3.84,4.72,5.77,2.72,3.38,5.36,6.83,8.15,10.14,3.12,3.69,6.09,7.49,8.87,11.43,1.67,2.38,3.18,4.86,4.77,7.29a11,11,0,0,0,.77.92c.16.36.31.73.49,1.08.35.65.71,1.29,1.07,1.94Zm-3.41-8a144.11,144.11,0,0,0-11.54-16.6c-4.19-5.33-8.68-10.42-13.09-15.59l.8.71c1.42,1.3,2.79,2.65,4.26,3.89a77.37,77.37,0,0,1,8.27,8c2,2.2,3.75,4.53,5.55,6.85a35.5,35.5,0,0,1,2.62,3.83c1.52,2.6,3,5.25,4.42,7.89a6.86,6.86,0,0,1,.3.69ZM20.78,104a8.31,8.31,0,0,1,.71,1c.35.62.63,1.27,1,1.9a5,5,0,0,0,.53.68c.51-.07.6.38.79.66,4.34,6.43,8.92,12.68,13.54,18.92,3.94,5.33,8,10.56,12.39,15.51A19.1,19.1,0,0,1,51,144.2a4.47,4.47,0,0,1,.33.7l.37.35.15.29s0,.07,0,.08a.63.63,0,0,1-.11.12.26.26,0,0,0,0,.19l-.36-.33c-.14-.1-.27-.21-.4-.32-1-1-1.95-2-2.91-3-1.35-1.42-2.67-2.87-4-4.28a93.57,93.57,0,0,1-8.78-10.19q-4.15-5.85-8-11.95A97.67,97.67,0,0,1,21.19,105c-.15-.34-.28-.69-.41-1h0Zm1.48,0c3.3,3.72,6.63,7.41,9.86,11.19a161.26,161.26,0,0,1,15.05,20.3l0,0a.27.27,0,0,0-.19.18,2.43,2.43,0,0,1-.2-.25c-2.62-3.59-5.26-7.16-8.15-10.54-1.57-1.83-3.06-3.73-4.58-5.6-3.25-4-6.5-8-9.72-12-1.11-1.4-2.13-2.86-3.19-4.29A13.16,13.16,0,0,1,22.26,104ZM52,137.43l-.81-.07c-1.54-2.83-3-5.61-4.54-8.32-1-1.66-2.07-3.23-3.16-4.82-.59-.86-1.3-1.66-1.93-2.5A72.75,72.75,0,0,0,31.28,110.9l-7.94-7.05a1.49,1.49,0,0,1-.24-.32,5.86,5.86,0,0,1,.55.3c1.93,1.44,3.87,2.88,5.79,4.33a68.23,68.23,0,0,1,16.06,17,101.82,101.82,0,0,1,6.3,11.74A2.46,2.46,0,0,1,52,137.43Zm54.35,25.33c-9-4.88-17.88-9.77-26.25-15.87a2.81,2.81,0,0,1,.46.11l1.34.61a101.12,101.12,0,0,1,13.78,7.72c3.39,2.25,6.84,4.4,10.06,6.91C105.9,162.4,106.1,162.59,106.3,162.76Zm.47.87-.07.13c-1.09-.47-2.2-.92-3.28-1.43q-3.37-1.59-6.72-3.23a37.44,37.44,0,0,1-5.77-3.53c-2.12-1.57-4.26-3.12-6.47-4.54a103.34,103.34,0,0,0-14.34-7.39c-.27-.12-.51-.28-.77-.42a1.09,1.09,0,0,1,.65,0c1.69.52,3.38,1.06,5.07,1.56a13.77,13.77,0,0,1,3.48,1.61c.57.36,1.15.72,1.7,1.1,4.08,2.84,8.2,5.63,12.49,8.14,3.28,1.92,6.61,3.77,9.91,5.65Zm5.51,3.62c-1.3-.45-2.56-.94-3.85-1.34a40,40,0,0,1-6.18-2.5c-2.67-1.33-5.38-2.55-8.16-3.62a61.91,61.91,0,0,1-9.43-4.62c-2.93-1.77-5.87-3.54-8.77-5.37s-6.11-3.43-9.2-5.09a49.21,49.21,0,0,0-9.27-3.87c-.54-.16-1.06-.39-1.6-.56-1.21-.4-2.44-.78-3.65-1.17-.2-.06-.39-.15-.59-.23l.08-.22a5,5,0,0,1,.54.08c2,.5,3.95,1,5.92,1.49,1.1.28,2.17.67,3.27.9a41.61,41.61,0,0,1,8.89,3c3.3,1.49,6.51,3.16,9.73,4.81a59.9,59.9,0,0,1,8.63,5.57l2.53,1.9a31,31,0,0,0,5.94,3.47c2,.91,4,1.87,5.94,2.77,2.2,1,4.43,1.91,6.63,2.89A8,8,0,0,1,112.28,167.25Zm-3.42-.64,2.32.73,0,.1-1.87-.59-.45-.17Zm4,2c-.56,0-1.06-.2-1.58-.26a56.36,56.36,0,0,1-8-1.91c-3.06-.81-6-1.87-9.07-2.81-2.06-.64-4.12-1.24-6.17-1.89a46.11,46.11,0,0,1-7.16-2.78c-1.7-.89-3.36-1.87-5.08-2.72a22.82,22.82,0,0,1-4.18-2.67,49,49,0,0,0-4.46-3.08c-1.75-1.1-3.4-2.37-5.14-3.49a38.69,38.69,0,0,1-4.83-3.71c-.4-.36-.78-.75-1.17-1.12a4,4,0,0,1,.76.35c2.07,1.38,4.27,2.53,6.46,3.72,2.94,1.61,5.86,3.26,8.78,4.9,2.2,1.23,4.39,2.49,6.59,3.73,1.5.85,3,1.64,4.54,2.52a56,56,0,0,0,7.66,3.85c1.26.5,2.52,1,3.8,1.46,1.67.58,3.36,1.13,5,1.66,1.15.36,2.32.64,3.47,1,2.8.9,5.58,1.83,8.38,2.76C112,168.24,112.45,168.41,112.91,168.57ZM61.63,147.25c.71.5,1.4,1,2.11,1.5,1.19.81,2.38,1.6,3.57,2.39,1,.69,2.11,1.32,3.1,2.06A39.06,39.06,0,0,0,76.3,157a80.55,80.55,0,0,0,7.82,3.8A95.77,95.77,0,0,0,94,164a59,59,0,0,1,6.26,2,31.07,31.07,0,0,0,3,.9c1.39.38,2.8.71,4.2,1.06a2.34,2.34,0,0,1-.91,0c-1.9-.28-3.8-.54-5.69-.86a47.23,47.23,0,0,1-4.76-1,93.64,93.64,0,0,1-10.7-3.65A47.58,47.58,0,0,1,80.33,160a144.7,144.7,0,0,1-14.81-9.54c-1.37-1-2.69-2.06-4-3.09Zm54.07,23.13a3.47,3.47,0,0,1,2,1.53c2.49,3.64,5,7.24,7.51,10.9q3.11,4.59,6.07,9.27c1.19,1.88,2.26,3.84,3.4,5.75,2.27,3.83,4.5,7.68,6.45,11.68q3.86,7.94,7.61,15.92c2.87,6.11,5.46,12.35,7.9,18.64,2,5.2,3.79,10.5,5.55,15.8a79.15,79.15,0,0,1,3.27,12.56,35,35,0,0,0,1.54,5.79,42.72,42.72,0,0,1,1.65,6.69c.22,1.34.46,2.67.67,4,.07.5.08,1,.12,1.51a3.2,3.2,0,0,1-.3-.54c-.68-1.76-1.36-3.52-2-5.29-2-5.38-4.15-10.67-6.64-15.84a220.71,220.71,0,0,0-12-21.78,149.31,149.31,0,0,0-9.92-14.17c-.37-.46-.65-1-1-1.47-.92-1.1-1.9-2.14-2.81-3.24a36.85,36.85,0,0,1-5.8-9.27,11.76,11.76,0,0,0-.77-1.38,5.87,5.87,0,0,1-.6-1.06,26.24,26.24,0,0,1-1-3.35c-.48-2.48-.89-5-1.26-7.47a73.74,73.74,0,0,0-2.71-12.47,41.89,41.89,0,0,0-4.08-8.93,65.51,65.51,0,0,0-8.07-10.31,1.88,1.88,0,0,0-.25-.24c-.26-.17-.49-.16-.72.18,0,.2.07.45.13.71.16.73.35,1.46.48,2.2.64,3.53,1.25,7,1.88,10.58a31,31,0,0,0,1.8,6.18c.9,2.24,1.81,4.47,2.71,6.71q2.08,5.15,4.67,10a39.19,39.19,0,0,0,4,6.54,11.44,11.44,0,0,1,.69,1.11,5,5,0,0,1-.59-.44q-6.34-6-12.67-11.94c-1.38-1.29-2.75-2.59-4.19-3.8-5.13-4.33-10.23-8.68-15.44-12.91A221,221,0,0,1,75.36,173c-4-4-7.93-8.06-11.64-12.34-.88-1-1.73-2.08-2.59-3.14a2.83,2.83,0,0,1-.4-.67c-.44-1-.88-2.09-1.29-3.14l-3.29-8.67c-.18-.48-.41-1-.61-1.43a44.17,44.17,0,0,1,4.17,2.9,190.44,190.44,0,0,0,16.65,11.87c1.88,1.19,3.79,2.34,5.76,3.35a61.37,61.37,0,0,0,7.28,3.09,55,55,0,0,0,10,2.83,77.89,77.89,0,0,0,10.21,1.2,17,17,0,0,1,4.11.74C114.39,169.79,115,170.19,115.7,170.38Zm-81.25-69c.21.12.44.23.64.37,1.28.87,2.53,1.78,3.83,2.61,3.17,2,6.33,4.09,9.56,6a47.81,47.81,0,0,0,4.77,2.33c2.09,1,4.2,1.86,6.3,2.79.86.38,1.72.76,2.57,1.18,2.76,1.37,5.53,2.75,8.28,4.15a16.81,16.81,0,0,1,3.13,1.8c-2.44-.82-4.87-1.63-7.24-2.62-3.47-1.45-6.89-3-10.34-4.56a92.37,92.37,0,0,1-10.7-5.62,78.3,78.3,0,0,1-10.63-8.22A1,1,0,0,1,34.45,101.41ZM67.58,119l-.73-.48.81.32A1.19,1.19,0,0,0,67.58,119ZM28.33,95.2a2.21,2.21,0,0,1,.27.12c2,1.3,4,2.58,5.95,3.91,2.74,1.87,5.5,3.7,8.36,5.37,3.91,2.28,7.81,4.56,11.76,6.75,2.93,1.63,5.81,3.35,8.7,5,.78.45,1.52,1,2.28,1.44-.42-.17-.84-.33-1.25-.53-1.18-.57-2.35-1.18-3.54-1.74-1-.47-2.08-.87-3.11-1.33-1.27-.57-2.52-1.18-3.78-1.77-1.7-.81-3.46-1.51-5.08-2.45-3.08-1.79-6.11-3.69-9.12-5.62a63.38,63.38,0,0,1-10.67-8.3C28.82,95.81,28.58,95.5,28.33,95.2Zm-5.62-5.55a7,7,0,0,1,.8.31c4.73,2.66,9.48,5.26,14.16,8,5.23,3.06,10.41,6.22,15.57,9.39,2.09,1.28,4.08,2.7,6.12,4.06,4.22,2.83,8.44,5.67,12.67,8.48q2.4,1.59,4.87,3.07c.95.58,2,1.07,3,1.59a5.94,5.94,0,0,1-2.23-.7c-3-1.66-6-3.3-9-5-3.8-2.14-7.58-4.33-11.38-6.49-3.46-2-6.94-3.93-10.39-5.94q-4.57-2.68-9.08-5.5c-2.61-1.65-5.18-3.37-7.73-5.11-1.67-1.14-3.32-2.34-4.91-3.6A9.83,9.83,0,0,1,22.71,89.65Zm.05-.55c2.22.56,4.37,1.26,6.5,2a26.37,26.37,0,0,1,3.37,1.3c3,1.56,6.13,3.09,9.07,4.84,6,3.57,11.88,7.3,17.55,11.36.42.3.9.53,1.35.79a4.68,4.68,0,0,0-.55-.54c-3.28-2.4-6.58-4.76-10-6.92-3.19-2-6.38-4-9.59-5.94-1.16-.71-2.38-1.32-3.57-2a.8.8,0,0,1,.58.06c1.52.74,3.06,1.45,4.55,2.24,2.4,1.26,4.78,2.56,7.15,3.86,2.18,1.19,4.42,2.29,6.52,3.61,3.51,2.19,7,4.48,10.38,6.81,4,2.77,7.79,5.93,11.58,9,1,.85,2,1.83,3,2.78a3.72,3.72,0,0,1,.52.77,66,66,0,0,0-6.84-4.67c-.78-.46-1.57-.87-2.36-1.31a8.15,8.15,0,0,0,1,.82,73.59,73.59,0,0,1,9.93,7.07c.34.28.67.58,1,.87a1,1,0,0,1-.67-.1c-1-.52-2-1.06-3-1.57a72.78,72.78,0,0,1-8.09-4.74c-5.59-3.83-11.15-7.72-16.87-11.37-6.12-3.91-12.37-7.63-18.63-11.34-3.56-2.11-7.24-4-10.86-6Zm40.3,14.65-.09,0a79.77,79.77,0,0,0-9.74-6.3.12.12,0,0,0-.14,0L52,96.84a82.85,82.85,0,0,0-9.66-4.11C40.18,92,38.07,91.16,36,90.37a4.37,4.37,0,0,1,1.08.19l5.07,1.6a71.67,71.67,0,0,1,10.23,4.21,48.79,48.79,0,0,1,9.89,6.49A8.74,8.74,0,0,1,63.06,103.75Zm8.79,8c-.25-.17-.51-.33-.74-.52a108.65,108.65,0,0,0-9-6.78,64.07,64.07,0,0,0-7.14-4.11c-2.74-1.42-5.51-2.79-8.28-4.15-1.83-.89-3.69-1.72-5.54-2.56a84,84,0,0,0-8-3.35C31,89.54,29,88.79,27,88.06a26.09,26.09,0,0,1,3.42.78c1.58.51,3.13,1.1,4.69,1.65.42.16.86.29,1.28.45L44,93.78l.95.36c2.32.88,4.58,1.92,6.82,3,1.07.51,2.12,1,3.15,1.61,2.42,1.47,4.79,3,7.09,4.65a5.58,5.58,0,0,0,.46.39c1.14.86,2.32,1.67,3.44,2.56A55.92,55.92,0,0,1,71.85,111.7Zm13.27,13.91A3.26,3.26,0,0,1,86,127.1c-.45-.34-.76-.55-1-.79-.51-.45-1-.9-1.48-1.39a62.41,62.41,0,0,0-5.76-5.74c-1.17-1-2.34-1.91-3.52-2.84-3.43-2.71-6.82-5.47-10.51-7.83s-7.39-5.08-11.39-7.13c-3.22-1.65-6.4-3.38-9.62-5q-3.11-1.6-6.29-3.06c-2.09-1-4.18-1.91-6.33-2.71-3-1.13-6.05-2.12-9.07-3.17a4.88,4.88,0,0,1-.74-.42l.12-.26a24.68,24.68,0,0,1,3.52.72c1.75.59,3.48,1.22,5.23,1.81,2.58.87,5.13,1.77,7.61,2.89,3.2,1.43,6.41,2.83,9.57,4.33,2.79,1.32,5.53,2.75,8.28,4.17a70.91,70.91,0,0,1,8.65,5.11,80,80,0,0,1,8.41,6.48C76.28,116.54,80.86,120.91,85.12,125.61ZM53.84,76.39a5.84,5.84,0,0,1-.48-.39A111.63,111.63,0,0,0,41.08,64.87c-.23-.17-.44-.37-.84-.71a5.38,5.38,0,0,1,.52.2A52.6,52.6,0,0,1,53.34,75.59,6,6,0,0,1,53.84,76.39ZM66.19,94.07a8,8,0,0,1,.5,1.07,4.09,4.09,0,0,1-.38-.33q-5-5.7-9.93-11.39a10,10,0,0,0-.9-.81,3.57,3.57,0,0,0,.36.67l3.52,4.13,7.28,8.49a4.28,4.28,0,0,1,.37.57c-1.12-.84-2.13-1.74-3.17-2.6a60.76,60.76,0,0,1-5.17-4.72q-4.71-4.8-9.45-9.56-3.91-3.93-7.84-7.82c-1.09-1.09-2.14-2.23-3.28-3.28-3.74-3.44-7.52-6.84-11.27-10.27a8.68,8.68,0,0,1-.65-.7,2.77,2.77,0,0,1,.58.26C28.35,58.85,30,59.89,31.5,61c2,1.49,4,3,6,4.61,1.38,1.1,2.72,2.25,4.09,3.37.23.18.5.31.75.47a3.51,3.51,0,0,0-.45-.62c-.73-.65-1.46-1.31-2.22-1.92-2.18-1.73-4.36-3.47-6.58-5.15-1.75-1.32-3.55-2.55-5.33-3.81L27,57.43a15.36,15.36,0,0,1,2.66,1c1.6.76,3.25,1.44,4.76,2.35A85.38,85.38,0,0,1,52.71,76,119.91,119.91,0,0,1,66.19,94.07ZM31.08,62.61C34.83,66,38.58,69.34,42,73q1.47,1.56,3,3,6.41,6.15,12.49,12.62a9.94,9.94,0,0,1-1-.62C54.05,86,51.51,83.92,49,81.77c-1.75-1.53-3.47-3.12-5.11-4.77-3.79-3.82-7.52-7.69-11.27-11.56a27.08,27.08,0,0,1-3.33-4.29C29.91,61.63,30.52,62.1,31.08,62.61Zm48.5-19.45c-1.29,2.29-2.53,4.62-3.75,7-.57,1.1-1,2.3-1.58,3.37a28.09,28.09,0,0,0-2.64,6.83l-2,7.72a.7.7,0,0,1-.06-.3c.22-1.26.4-2.54.7-3.78.5-2.05,1.09-4.07,1.63-6.11.24-.88.4-1.77.65-2.64.19-.68.45-1.35.7-2,.17-.46.36-.91.54-1.37-.07,0-.16.07-.19.13a11.87,11.87,0,0,0-1.38,3.56c-.1.51-.22,1-.36,1.53-.67,2.44-1.35,4.86-2,7.3a8.29,8.29,0,0,0-.21,1q-.5,3.41-1,6.81c-.22,1.53-.42,3.05-.65,4.71a3.35,3.35,0,0,1-.15-.41,26.82,26.82,0,0,1-.08-5.3c.17-1.65.37-3.29.53-4.94a25.06,25.06,0,0,1,1-4.85,50.17,50.17,0,0,1,3.66-9.1,10.7,10.7,0,0,1,1.76-2.81l-.3,1c.11-.1.26-.19.3-.32a27,27,0,0,1,2.13-4c1.64-3,3.24-6,4.86-8.92.11-.21.26-.41.39-.61a1.54,1.54,0,0,1,0,.8A23.76,23.76,0,0,1,79.58,43.16ZM79,48.54a13.25,13.25,0,0,0-.81,1.86c-.81,2.67-1.83,5.26-2.78,7.88S73.69,63.42,72.84,66c-.22.64-.44,1.29-.6,1.94a106.63,106.63,0,0,0-2,11.92c-.18,1.59-.23,3.21-.35,5.07a26.06,26.06,0,0,1-.47-5c0-1.84,0-3.69,0-5.53a28.47,28.47,0,0,1,.78-6.94c.49-1.9.91-3.81,1.46-5.69a39.75,39.75,0,0,1,2-6.1c.43-.92.92-1.81,1.37-2.72.89-1.79,1.73-3.6,2.65-5.36,1-2,2.12-3.9,3.19-5.84A19.67,19.67,0,0,1,79,48.54Zm3.22-9.29a3.23,3.23,0,0,1,0,.44c-.26,2.09-.5,4.19-.81,6.27a26.49,26.49,0,0,1-1.37,5.82c-.41,1-.84,2.1-1.23,3.16-.61,1.62-1.21,3.24-1.79,4.88s-1.33,3.53-1.84,5.33c-.86,3-1.61,6.12-2.38,9.19-.21.84-.35,1.7-.48,2.56a68.26,68.26,0,0,0-.5,8.34c-.06,2.78-.08,5.57-.12,8.35a1.57,1.57,0,0,1-.26,1.06.84.84,0,0,1-.08-.2,47.12,47.12,0,0,1-.85-12c.15-2.86.61-5.69,1-8.52a39.31,39.31,0,0,1,1.3-6.53c.94-2.94,1.86-5.89,2.8-8.84.15-.46.32-.92.48-1.38.63-1.74,1.24-3.48,1.88-5.21.42-1.13.83-2.26,1.33-3.35a26.05,26.05,0,0,0,1.87-5.91c.24-1.17.53-2.34.79-3.5ZM72.24,92c.09-.53.17-1.06.26-1.6A1.56,1.56,0,0,1,72.24,92Zm6.64-31.57c-.29,1-.52,2-.79,3.06-.63,2.33-1.31,4.64-1.91,7-.77,3-1.46,6.08-2.24,9.11a41.5,41.5,0,0,0-1.21,6.55,13.22,13.22,0,0,1-.29,1.5.88.88,0,0,1-.21-.66c0-1.88.1-3.77.18-5.65a34.37,34.37,0,0,1,1.24-8.24c.56-2,1-4,1.5-5.92.38-1.46.71-2.93,1.2-4.35.84-2.46,1.79-4.88,2.7-7.32.13-.35.27-.7.41-1a30.75,30.75,0,0,0,2.23-7.33c0-.34.14-.67.18-1a4,4,0,0,1,.16-.88V46.6h0c-.29,1.94-.55,3.87-.83,5.81a16.72,16.72,0,0,1-1.3,4.78A21.56,21.56,0,0,0,78.88,60.42Zm4.33,1.1c.22-1.34.56-2.66.71-4a90.24,90.24,0,0,0,.53-13.65c0-.46,0-.92,0-1.37a28.91,28.91,0,0,1,.42,2.92A70.07,70.07,0,0,1,84,63.65,50.4,50.4,0,0,1,80.5,74.32c.18-.65.41-1.29.58-1.95.35-1.34.73-2.69,1-4.05C82.49,66.06,82.82,63.78,83.21,61.52ZM80.16,74c-.49,1.26-1,2.51-1.63,3.73-.43.87-1.07,1.65-1.47,2.54-1.23,2.79-2.38,5.61-3.56,8.43-.11.25-.2.51-.3.77A10.88,10.88,0,0,1,74,83.91a47.81,47.81,0,0,0,2.13-5.6c.23-.79.52-1.57.8-2.35.83-2.23,1.67-4.44,2.5-6.67.37-1,.76-2,1.11-3a22.17,22.17,0,0,0,.74-2.49c.34-1.59.64-3.18.89-4.78a68.14,68.14,0,0,0,.95-9.89A8.07,8.07,0,0,0,83,48.08a3.08,3.08,0,0,0-.13.66,67.9,67.9,0,0,1-.77,8.55,57.17,57.17,0,0,1-1,5.68c-.5,2-1.21,4-1.9,5.92q-1.75,5-3.6,10a24.26,24.26,0,0,1-2,4.72c.42-2,.9-4,1.39-6.06.68-2.82,1.36-5.64,2.06-8.46.4-1.65.83-3.29,1.26-4.93q.55-2.07,1.14-4.14c.24-.82.48-1.66.79-2.46a17.49,17.49,0,0,0,1.22-4.11c.22-1.64.51-3.28.69-4.92,0-.37.11-.74.17-1.11a.19.19,0,0,0,0-.08v-.15a4.42,4.42,0,0,0,0-1.31v-.2c.07-.4.15-.8.2-1.21.09-.79.15-1.59.23-2.39,0-.23,0-.46,0-.69l.22,0c0-1,0-2,0-3a2.61,2.61,0,0,1,.73-2.13c.14,1.63.29,3.2.4,4.78a93.94,93.94,0,0,1-.14,13.21c-.12,1.54-.29,3.08-.54,4.6-.42,2.6-1,5.18-1.37,7.79A34.82,34.82,0,0,1,80.16,74Zm-3.86,9.3a10.57,10.57,0,0,1,2.1-4.21ZM72.6,93c.18-.53.33-1.08.51-1.61.44-1.32.89-2.64,1.34-4h0c-.69,2.73-1.39,5.46-2.11,8.3A4.8,4.8,0,0,1,72.6,93Zm-1.49,3.64-.23.06c-2.16-8-3.57-16.07-1.85-24.38a1,1,0,0,1,0,.39c0,2.19,0,4.37,0,6.56A30.78,30.78,0,0,0,69.21,83c.43,3.66.93,7.32,1.43,11C70.76,94.86,71,95.75,71.11,96.64Zm-1,2.65a22.1,22.1,0,0,1-1.48-1.75,24.08,24.08,0,0,1-1.23-2.16l-1.2-2.23a1.2,1.2,0,0,1,.29.26q1.71,2.59,3.39,5.2A3,3,0,0,1,70.13,99.29ZM25.56,57.78a6,6,0,0,1,1.54,1.37c1.32,1.69,2.6,3.41,3.92,5.11.47.59,1,1.15,1.5,1.69,2.86,3,5.74,5.88,8.6,8.82A139.37,139.37,0,0,0,52.91,85.65C57,89,61,92.28,65.05,95.62c1.48,1.23,2.88,2.53,4.31,3.8l-.13.19c-1.56-1.18-3.14-2.32-4.67-3.54-3.34-2.64-6.65-5.32-10-8-.53-.42-1.06-.84-1.62-1.23a56.42,56.42,0,0,1-5.21-4.15c-1.41-1.25-2.86-2.46-4.24-3.74-1.53-1.4-3.05-2.81-4.49-4.3-2.39-2.46-4.72-5-7-7.48a38,38,0,0,1-6.21-8.87A5,5,0,0,1,25.56,57.78Z"/></g></g></svg>