<svg xmlns="http://www.w3.org/2000/svg" viewBox="0 0 249.72 257.32"><defs><style>.cls-1{fill:#33403a;}.cls-2{fill:#1d3e46;}</style></defs><g id="Layer_2" data-name="Layer 2"><g id="Layer_1-2" data-name="Layer 1"><path class="cls-1" d="M200.58,58.48l.52-.57Z"/><path class="cls-1" d="M200.09,59c.17-.19.34-.39.52-.58C200.43,58.64,200.26,58.84,200.09,59Z"/><path class="cls-1" d="M199.6,59.57l.52-.57Z"/><path class="cls-1" d="M199.11,60.12c.17-.19.34-.39.52-.58C199.45,59.73,199.28,59.93,199.11,60.12Z"/><path class="cls-1" d="M198.61,60.66l.53-.57Z"/><path class="cls-1" d="M140.74,80.38a9.57,9.57,0,0,1,.15,4.45h0a10.48,10.48,0,0,1-.12-4.46Z"/><path class="cls-1" d="M140.77,80.37a4.39,4.39,0,0,1-.25-2.79h0a4.19,4.19,0,0,1,.25,2.79Z"/><path class="cls-1" d="M140.36,72.72h0C140.36,72.64,140.35,72.55,140.36,72.72Z"/><path class="cls-1" d="M140.38,74.45l-.19-.51.21,0c0,.18,0,.36-.05.54Z"/><path class="cls-1" d="M140.43,75.49c0-.35,0-.69-.05-1h0c0,.35,0,.7.05,1Z"/><path class="cls-1" d="M140.4,75.5c0,.35,0,.69,0,1h0c-.34-.33-.14-.69,0-1Z"/><path class="cls-1" d="M140.45,76.54c0,.35,0,.7,0,1h0c0-.35,0-.7,0-1Z"/><path class="cls-1" d="M209.92,38.26a14.67,14.67,0,0,1,4-4.38Z"/><path class="cls-1" d="M195.87,55.82a12.6,12.6,0,0,1,3.24-4.25A17.67,17.67,0,0,1,195.87,55.82Z"/><path class="cls-1" d="M219.65,27.68a6.51,6.51,0,0,1,2.4-2.43A6.23,6.23,0,0,1,219.65,27.68Z"/><path class="cls-1" d="M215.81,31.72a6.44,6.44,0,0,1,2.4-2.43A6.37,6.37,0,0,1,215.81,31.72Z"/><path class="cls-1" d="M222.51,24.73a3.71,3.71,0,0,1,1.91-1.89A4.21,4.21,0,0,1,222.51,24.73Z"/><path class="cls-1" d="M207.37,41.3a4.08,4.08,0,0,1,1.59-2A4,4,0,0,1,207.37,41.3Z"/><path class="cls-1" d="M199.08,51.6a3.71,3.71,0,0,1,1.59-2A3.88,3.88,0,0,1,199.08,51.6Z"/><path class="cls-1" d="M224.87,22.32A2.35,2.35,0,0,1,226.29,21,2.14,2.14,0,0,1,224.87,22.32Z"/><path class="cls-1" d="M226.26,21a2.2,2.2,0,0,1,1.42-1.34A2.27,2.27,0,0,1,226.26,21Z"/><path class="cls-1" d="M227.65,19.68a2.23,2.23,0,0,1,1.41-1.34A2.23,2.23,0,0,1,227.65,19.68Z"/><path class="cls-1" d="M231.8,15.73a2.37,2.37,0,0,1,1.42-1.35A2.29,2.29,0,0,1,231.8,15.73Z"/><path class="cls-1" d="M235.44,15A2.69,2.69,0,0,1,234,16.34,2.38,2.38,0,0,1,235.44,15Z"/><path class="cls-1" d="M237.8,12.59a2.73,2.73,0,0,1-1.42,1.34A2.59,2.59,0,0,1,237.8,12.59Z"/><path class="cls-1" d="M229,18.37A2.29,2.29,0,0,1,230.45,17,2.29,2.29,0,0,1,229,18.37Z"/><path class="cls-1" d="M230.42,17.05a2.24,2.24,0,0,1,1.42-1.35A2.37,2.37,0,0,1,230.42,17.05Z"/><path class="cls-1" d="M237.26,10.77a1.84,1.84,0,0,1,1.33-1A1.82,1.82,0,0,1,237.26,10.77Z"/><path class="cls-1" d="M201.13,49.11a2.26,2.26,0,0,1,1.1-1.44A2.38,2.38,0,0,1,201.13,49.11Z"/><path class="cls-1" d="M239.45,9a1.9,1.9,0,0,1,1.33-1A1.71,1.71,0,0,1,239.45,9Z"/><path class="cls-1" d="M204.25,45.2c.37-.47.73-1,1.1-1.43A2.3,2.3,0,0,1,204.25,45.2Z"/><path class="cls-1" d="M241.64,7.22a1.84,1.84,0,0,1,1.34-1A1.78,1.78,0,0,1,241.64,7.22Z"/><path class="cls-1" d="M202.69,47.16a2.42,2.42,0,0,1,1.1-1.44A2.34,2.34,0,0,1,202.69,47.16Z"/><path class="cls-1" d="M205.81,43.25c.37-.47.73-1,1.1-1.43A2.39,2.39,0,0,1,205.81,43.25Z"/><path class="cls-1" d="M233.19,14.41a1.07,1.07,0,0,1,.93-.8Z"/><path class="cls-1" d="M234.57,13.09l.93-.8A1.05,1.05,0,0,1,234.57,13.09Z"/><path class="cls-1" d="M235.47,12.32a1.1,1.1,0,0,1,.93-.8A1.21,1.21,0,0,1,235.47,12.32Z"/><path class="cls-1" d="M239.19,11.27l-.93.8Z"/><path class="cls-1" d="M236.36,11.54a1.19,1.19,0,0,1,.93-.8A1.1,1.1,0,0,1,236.36,11.54Z"/><path class="cls-1" d="M238.56,9.77a1.12,1.12,0,0,1,.92-.8A1.1,1.1,0,0,1,238.56,9.77Z"/><path class="cls-1" d="M240.75,8l.93-.8A1.07,1.07,0,0,1,240.75,8Z"/><path class="cls-1" d="M243.84,5.45a1,1,0,0,1,.93-.8Z"/><path class="cls-1" d="M243.84,6.77l-.93.8Z"/><path class="cls-1" d="M242.94,6.22a1,1,0,0,1,.93-.8Z"/><path class="cls-1" d="M200.64,49.65l.52-.57Z"/><path class="cls-1" d="M202.2,47.7l.52-.57Z"/><path class="cls-1" d="M203.76,45.75l.52-.57Z"/><path class="cls-1" d="M205.32,43.8l.52-.58Z"/><path class="cls-1" d="M206.88,41.85l.52-.58Z"/><path class="cls-1" d="M208.93,39.35l.53-.57Z"/><path class="cls-1" d="M209.42,38.81l.53-.58Z"/><path class="cls-1" d="M213.84,33.9l.53-.57Z"/><path class="cls-1" d="M214.33,33.36l.53-.57Z"/><path class="cls-1" d="M214.83,32.81l.52-.57Z"/><path class="cls-1" d="M215.32,32.27l.52-.58Z"/><path class="cls-1" d="M218.18,29.32l.52-.58Z"/><path class="cls-1" d="M218.67,28.77l.52-.57Z"/><path class="cls-1" d="M219.16,28.23l.52-.58Z"/><path class="cls-1" d="M183,79.1l-.18.67C182.56,79.46,182.73,79.27,183,79.1Z"/><path class="cls-1" d="M222,25.27l.52-.57Z"/><path class="cls-1" d="M224.38,22.87l.53-.58Z"/><path class="cls-1" d="M232.58,18l-.53.57Z"/><path class="cls-1" d="M233.07,17.4l-.53.58Z"/><path class="cls-1" d="M233.56,16.86l-.52.57Z"/><path class="cls-1" d="M234.05,16.31l-.52.58Z"/><path class="cls-1" d="M246.2,4.36l-.52.58Z"/><path class="cls-1" d="M245.71,4.91l-.52.57Z"/><path class="cls-1" d="M244.82,5.68l-.52.57Z"/><path class="cls-1" d="M244.33,6.22c-.18.19-.35.39-.52.58C244,6.61,244.15,6.41,244.33,6.22Z"/><path class="cls-1" d="M242.94,7.54c-.17.19-.35.38-.52.58C242.59,7.92,242.77,7.73,242.94,7.54Z"/><path class="cls-1" d="M242.45,8.09l-.52.57Z"/><path class="cls-1" d="M241.55,8.86l-.52.57Z"/><path class="cls-1" d="M241.06,9.41l-.52.57Z"/><path class="cls-1" d="M240.17,10.18l-.52.57Z"/><path class="cls-1" d="M239.68,10.72c-.17.2-.35.39-.52.58C239.33,11.11,239.51,10.92,239.68,10.72Z"/><path class="cls-1" d="M235.93,14.45l-.53.58Z"/><path class="cls-1" d="M238.29,12l-.52.58Z"/><path class="cls-1" d="M236.42,13.9l-.53.58Z"/><path class="cls-1" d="M234.09,13.64l.52-.58Z"/><path class="cls-1" d="M240.58,10l-.44.24Z"/><path class="cls-1" d="M242,8.64l-.44.24Z"/><path class="cls-1" d="M245.23,5.45l-.45.25Z"/><path class="cls-1" d="M204.88,39.25a7.17,7.17,0,0,1,.67-1.1q3.33-3.74,6.69-7.42a6.49,6.49,0,0,1,1-.77,7.64,7.64,0,0,1-.62.94q-3.37,3.78-6.78,7.54A8.61,8.61,0,0,1,204.88,39.25Z"/><path class="cls-1" d="M215.59,27.58a3.57,3.57,0,0,1,1.91-1.89A3.78,3.78,0,0,1,215.59,27.58Z"/><path class="cls-1" d="M213.72,29.44a3.73,3.73,0,0,1,1.9-1.89A3.65,3.65,0,0,1,213.72,29.44Z"/><path class="cls-1" d="M219.53,23.2l.41-.23.33.09a2,2,0,0,1-1.41,1.34l.18-.66Z"/><path class="cls-1" d="M218.14,24.51l.75-.14a2.07,2.07,0,0,1-1.42,1.35Z"/><path class="cls-1" d="M213.23,30l.52-.57Z"/><path class="cls-1" d="M191.06,73.21c.17-.2.35-.39.52-.58C191.41,72.82,191.23,73,191.06,73.21Z"/><path class="cls-1" d="M190.57,73.75l.52-.57Z"/><path class="cls-1" d="M190.08,74.3c.17-.2.34-.39.52-.58C190.42,73.91,190.25,74.1,190.08,74.3Z"/><path class="cls-1" d="M189.59,74.84l.52-.57Z"/><path class="cls-1" d="M135.46,114.32a18.28,18.28,0,0,1-.28-5.22A10.74,10.74,0,0,1,135.46,114.32Z"/><path class="cls-1" d="M135.3,117.34c-.32-.59,0-1.15.12-1.71C135.73,116.22,135.45,116.78,135.3,117.34Z"/><path class="cls-1" d="M135.43,115.67c-.34-.47-.11-.93,0-1.39C135.78,114.75,135.56,115.21,135.43,115.67Z"/><path class="cls-1" d="M185.75,171.11c1.07-.74,2.37-.68,3.56-1a13.82,13.82,0,0,1,2.24-.18A21.31,21.31,0,0,1,185.75,171.11Z"/><path class="cls-1" d="M180.63,172.41c1.27-.85,2.8-.91,4.22-1.3a3.68,3.68,0,0,1,.94,0c-1.09.72-2.42.72-3.61,1.12A8,8,0,0,1,180.63,172.41Z"/><path class="cls-1" d="M196.9,169.06a3.37,3.37,0,0,1-.1.34l-1.56.09-1.57.06,2.26-.76Z"/><path class="cls-1" d="M191.51,170l.76-.16Z"/><path class="cls-1" d="M192.23,169.84l.76-.16Z"/><path class="cls-1" d="M193,169.69l.76-.15Z"/><path class="cls-1" d="M131.28,182.25l1.16-.39Z"/><path class="cls-1" d="M130.15,182.61l1.17-.38Z"/><path class="cls-1" d="M129,183l1.16-.38Z"/><path class="cls-1" d="M132.4,181.88l1.16-.39Z"/><path class="cls-1" d="M133.52,181.51l1.17-.39Z"/><path class="cls-1" d="M134.65,181.14l1.16-.39Z"/><path class="cls-1" d="M135.77,180.77l1.16-.39Z"/><path class="cls-1" d="M138.74,179.88l1.16-.38Z"/><path class="cls-1" d="M124.94,184.23l.76-.15Z"/><path class="cls-1" d="M136.89,180.39l.76-.15Z"/><path class="cls-1" d="M138,180l.76-.15Z"/><path class="cls-1" d="M139.86,179.51l.76-.15Z"/><path class="cls-1" d="M141.7,179l.76-.15Z"/><path class="cls-1" d="M142.42,178.86l.76-.15Z"/><path class="cls-1" d="M146.43,177.92l.76-.15Z"/><path class="cls-1" d="M147.15,177.78l.75-.15Z"/><path class="cls-1" d="M137.62,180.26l.43-.25Z"/><path class="cls-1" d="M198.43,111.85a285,285,0,0,1-26,19.81l-1.73,1.14-.2.14-2.72,1.79-.16.1c-1,.65-2,1.3-3,1.93-.31.2,0,.65.33.46a211.3,211.3,0,0,0,26.76-18.75c2.4-2,4.76-4,7.08-6.09C199.11,112.11,198.75,111.58,198.43,111.85Z"/><path class="cls-1" d="M169.52,133.92l-.43.25Z"/><path class="cls-1" d="M166.61,135.84l-.44.25Z"/><path class="cls-2" d="M109.48,184.12a88.45,88.45,0,0,1,7-5.61,30.75,30.75,0,0,0,2.68-2.15,195.45,195.45,0,0,0,20.33-20.67c1.84-2.17,3.68-4.33,5.55-6.48a7,7,0,0,1,1.58-1.4,40.58,40.58,0,0,1,8.51-4.2c1.81-.59,3.62-1.22,5.43-1.84,2.95-1,5.92-2,8.82-3.08,7.57-2.92,14.27-7.35,20.74-12.14a51.91,51.91,0,0,0,7.17-6.24c7.39-8,14.85-15.89,22.12-24C226,89.05,232.76,82,240.61,76.06a2.92,2.92,0,0,0,.49-.73c-.42-.61-.9-.5-1.39-.37-1.58.43-3.19.78-4.74,1.3a150.9,150.9,0,0,0-29.33,13,145.6,145.6,0,0,0-22.76,16.3A185.26,185.26,0,0,0,162,127.91c-3.22,4-6.51,7.94-9.79,11.89a12.32,12.32,0,0,1-1.24,1.15,8.36,8.36,0,0,1,.58-1.06c2.66-4,5.37-8,8-12A160,160,0,0,0,176.4,94.11a28.39,28.39,0,0,1,5.84-9.57A115,115,0,0,1,195.72,72.1c7.07-5.6,14.07-11.28,20.78-17.32A128,128,0,0,0,228.31,42.5a112.51,112.51,0,0,0,7.17-9.36,59.82,59.82,0,0,0,5.33-9.58c.76-1.69,1.34-3.46,2-5.21,1-2.73,1.86-5.48,2.86-8.2a66.51,66.51,0,0,1,3.85-9,4.08,4.08,0,0,0,.23-1,3.37,3.37,0,0,0-1-.06,4.33,4.33,0,0,0-1,.55,218.74,218.74,0,0,0-29.48,21.83A179.21,179.21,0,0,0,200.17,40.5a73.12,73.12,0,0,0-8.34,12.13c-3.17,5.75-5.43,11.91-8.21,17.46.29-1.07.66-2.48,1.07-3.88a88.42,88.42,0,0,0,2.91-12.1c.41-2.7.78-5.41,1.06-8.13a33.11,33.11,0,0,0,.27-5.71,63.57,63.57,0,0,0-3.61-17.94,81.24,81.24,0,0,1-3.81-12.87c0-.15-.18-.27-.33-.48l-1,0a17.92,17.92,0,0,0-.68,1.68c-.49,1.56-1,3.13-1.39,4.71-1.24,4.88-2.48,9.75-3.65,14.64a58.15,58.15,0,0,0-1.79,10.33,91.35,91.35,0,0,0,1.6,22.5c.63,3.21,1.07,6.47,1.45,9.72.29,2.6.41,5.23.51,7.85a34.75,34.75,0,0,1-.05,5.4A26.84,26.84,0,0,1,173.29,96c-.45.81-.82,1.67-1.22,2.51a174.85,174.85,0,0,1-8.56,16,78.79,78.79,0,0,0-4.16,7.24,95.14,95.14,0,0,1-9.41,15.34c-2.71,3.64-5.33,7.35-7.94,11.05a11.43,11.43,0,0,1-3,3.16,7.62,7.62,0,0,0-2.85,3.1,5,5,0,0,1-1.2,1.32c-1.25,1.15-2.51,2.27-3.78,3.4-.24.22-.51.41-1,.81.33-.61.47-.9.64-1.18a102.16,102.16,0,0,0,7.41-15.69c.76-2,1.4-4,2.1-6a82.44,82.44,0,0,0,3.91-16.56,125.33,125.33,0,0,0,.8-13.41,110.79,110.79,0,0,0-1-19.94Q142.2,76,140.39,64.83c-.08-.49-.14-1-.73-1.26-.89-.11-1.15.63-1.39,1.27-1,2.5-1.94,5-2.8,7.53A94.46,94.46,0,0,0,131,99c-.38,9.34-.18,18.68.06,28a81.09,81.09,0,0,1-1.49,18.91,61.92,61.92,0,0,1-4.26,13.58A63.7,63.7,0,0,1,114.45,176a87.58,87.58,0,0,1-8.64,8,220.4,220.4,0,0,1-19.55,14.62c-3,1.94-6,3.8-8.87,5.91-1.56,1.16-3.24,2.18-4.86,3.26.31-.56.6-1.13,1-1.66,1.07-1.59,2.17-3.15,3.24-4.73,3.37-5,6-10.44,8.81-15.72a61.55,61.55,0,0,0,4.64-11c1.83-5.84,3.51-11.73,5.25-17.6a77.63,77.63,0,0,0,2.92-17.91,72,72,0,0,0-.84-17.48c-1-5.42-2.24-10.81-3.37-16.21a2.26,2.26,0,0,0-.17-.63c-.17-.32-.4-.61-.54-.84a1.2,1.2,0,0,0-1.49.65,8.4,8.4,0,0,0-.52,1.19c-1.49,3.65-2.89,7.33-4.47,10.93a150,150,0,0,0-7.86,22.06c-.89,3.38-1.8,6.76-2.61,10.16-.52,2.18-1,4.39-1.29,6.6q-1.09,7-2,14.11c-.6,4.55-1.26,9.1-1.63,13.67A96.66,96.66,0,0,1,67.7,204a61.16,61.16,0,0,1-3.36,8.53,6.84,6.84,0,0,1-3.12,3.23c-.69.35-1.35.72-2,1.1-2,1.13-4,2.25-6,3.41-2.31,1.35-4.57,2.8-6.92,4.09-7.48,4.1-14.7,8.63-21.74,13.46s-14.18,9.86-21.72,14.09A3.45,3.45,0,0,0,1.1,254a10.5,10.5,0,0,1-.62,1.32,10.29,10.29,0,0,0-.47,1.2c0,.11.1.28.2.49l1.37-.29a3.05,3.05,0,0,0,1.82.63c.33-.38.74-.81,1.11-1.27a36.56,36.56,0,0,1,8.44-7.7c3.57-2.34,7.24-4.5,10.91-6.68,7.23-4.31,14.45-8.64,21.75-12.84,6.58-3.79,13-7.83,19.39-12,9.13-5.93,18-12.24,26.72-18.73a15.75,15.75,0,0,1,4.47-2.37c.93-.31,1.87-.63,2.81-.89a108.48,108.48,0,0,1,16.46-2.81c5.31-.63,10.69-.68,16-1,3.33-.2,6.65-.38,10-.64a61.08,61.08,0,0,0,10.81-1.92,185.86,185.86,0,0,0,25.27-8.64c5.77-2.47,11.46-5.17,17.14-7.85,2.57-1.21,5-2.61,7.56-3.93.38-.2.84-.35.69-1-.41-.48-1-.38-1.51-.4-6.88-.26-13.76-.5-20.63-.79a111,111,0,0,0-42.33,6.65A156.35,156.35,0,0,0,116,183l-14.65,8c.42-.41.82-.85,1.27-1.22C104.9,187.85,107.22,186,109.48,184.12ZM186.86,77.41a5,5,0,0,1,.51-.94c1.38-1.69,2.74-3.4,4.19-5,1.59-1.79,3.27-3.51,4.93-5.24a15.32,15.32,0,0,1,1.22-1c.56-.66,1.07-1.37,1.68-2,4.92-4.87,9.89-9.7,14.78-14.6q3.33-3.34,6.51-6.85a.29.29,0,0,0,.44,0Q232.91,27.85,243.3,13a51.4,51.4,0,0,1-7.09,12.56c-2.1,2.57-4,5.29-6.07,7.9a124.19,124.19,0,0,1-10,11.35l-.08.05L205.84,57.73c-2.3,2.09-4.55,4.19-6.75,6.36a2,2,0,0,0-.26.25l-.74.75-.36.08c-.29.39-.55.8-.87,1.16l-.09.1c-1.31,1.35-2.59,2.72-3.85,4.14-1.7,1.93-3.36,3.89-5,5.9Zm50.76-49.95a118.54,118.54,0,0,1-14,18.92,97.45,97.45,0,0,1-7.35,7c-7.62,6.81-15.51,13.3-23.59,19.55l-2.75,2.13c2.85-3.25,5.69-6.52,8.74-9.6,4.45-4.47,9.24-8.62,13.88-12.89,2-1.79,3.92-3.6,5.87-5.4l.27-.25,1.74-1.6a.3.3,0,0,0,.1-.22,118.19,118.19,0,0,0,11.16-12.7c1.63-2.19,3.32-4.34,5-6.46a41.09,41.09,0,0,0,5.05-8c.36-.76.75-1.51,1.16-2.24A65.83,65.83,0,0,1,237.62,27.46Zm8.31-21.88a42,42,0,0,1-5,7.43c-2.09,2.59-4.16,5.2-6.25,7.79-.75.93-1.49,1.88-2.3,2.77Q225,31.63,217.7,39.65c-.57.62-1.15,1.22-1.73,1.83a.21.21,0,0,0-.22.06c-6.57,7-13.16,14-19.48,21.2L195,64c.31-.53.59-1.07.94-1.57,3.63-5.11,7.65-9.92,11.56-14.81,2.83-3.53,5.47-7.21,8.39-10.67.35-.42.71-.83,1.07-1.25a.27.27,0,0,0,.14-.07c4-4.4,8.06-8.78,12.07-13.19s7.87-8.72,12-12.86c1.66-1.66,3.36-3.27,5.06-4.88A1.82,1.82,0,0,1,245.93,5.58Zm.4-1.81,0,.17c-3.7,3.36-7.37,6.77-10.75,10.47-1.38,1.52-2.77,3-4.15,4.57-.11.09-.22.18-.32.28-4.34,4.82-8.72,9.61-13,14.49l-1.36,1.5a.34.34,0,0,0-.06.12l-1,1.12c-3.2,3.72-6,7.76-9.16,11.54-7.26,8.76-13.91,18-20.61,27.15-1,1.32-2,2.62-2.94,3.93.14.27.12.49-.18.64l-.56.84-.1-.34c.37-1,.7-2,1-3,2.31-4.08,4.6-8.17,7-12.2,1-1.7,2.1-3.36,3.19-5,5.13-6.95,10.56-13.68,16.2-20.22a304.57,304.57,0,0,1,23.59-24.48c4.07-3.76,8.19-7.48,12.4-11.1Zm-2.81,1.11c.32-.21.66-.41,1-.61A291.78,291.78,0,0,0,222.07,25a309.75,309.75,0,0,0-22.38,25.52c-1.65,2.1-3.25,4.23-4.83,6.37-.15.18-.29.36-.43.55l-.21.32c-2,2.71-3.92,5.46-5.83,8.22a.24.24,0,0,0,0,.31c-1.49,2.28-2.94,4.6-4.31,7,.28-.71.56-1.41.87-2.1a120.75,120.75,0,0,1,13.69-23.6c1.83-2.44,3.73-4.84,5.59-7.26a.56.56,0,0,1,.05-.08l2.86-3.14q3.18-3.49,6.48-6.87c3.74-3.83,7.59-7.54,11.47-11.22A213.48,213.48,0,0,1,243.52,4.88ZM189.06,60.3c1-2.18,2.2-4.28,3.29-6.42a56.19,56.19,0,0,1,7.22-10.71,162.82,162.82,0,0,1,17.52-17.91,8.69,8.69,0,0,1,1-.69c-1.64,1.62-3.27,3.27-4.87,4.94q-3.3,3.48-6.48,7.08c-2.15,2.44-4.15,5-6.29,7.46a.18.18,0,0,0,0,.23c-1.32,1.78-2.58,3.6-3.88,5.39A112.07,112.07,0,0,0,186.09,67.6a3,3,0,0,1-.43.58C186.79,65.55,187.86,62.89,189.06,60.3Zm-3.48,8-.35,1.25-.26-.1ZM182,80.56l.2.06-.88,1.6C181.56,81.67,181.79,81.12,182,80.56Zm-1.45,3.74c1.26-1.91,2.59-3.77,3.81-5.69a94.16,94.16,0,0,1,7.39-10,.29.29,0,0,0,.33-.09c4.36-4.89,8.67-9.82,13-14.71q3.67-4,7.34-8.05l.15-.2L214,44.11a2.86,2.86,0,0,0,.41-.36q9.18-9.87,18.34-19.77c.37-.4.72-.82,1.06-1.24,3-3.74,6-7.47,9-11.23.9-1.13,1.69-2.33,2.65-3.43-.32.73-.64,1.46-1,2.19q-9.12,13.08-19.19,25.5c-4.91,5.57-10,11-15.25,16.21-5.64,5.56-11.28,11.13-16.74,16.88a118.61,118.61,0,0,0-11.52,14.46c-.57.82-1.27,1.53-1.91,2.29A12.64,12.64,0,0,1,180.55,84.3ZM184.82,23a33.24,33.24,0,0,1,1.4,4.28,72.16,72.16,0,0,1,1.92,12,28.77,28.77,0,0,1-.43,6.68c-.53,3.13-.88,6.28-1.48,9.39-.49,2.54-1.22,5-1.84,7.56l-.19-.05c.51-2.68,1-5.36,1.52-8a51.73,51.73,0,0,0,.85-9.94,113.33,113.33,0,0,0-1.69-19.89c-.09-.48-.14-1-.19-1.46A2.48,2.48,0,0,1,184.82,23Zm-2.25-6.37A27.05,27.05,0,0,1,183.89,21c.59,4.49,1.34,9,1.69,13.48a85.46,85.46,0,0,1,0,17c-.31,2.49-.8,5-1.26,7.42-.5,2.73-1,5.47-1.62,8.18a47.56,47.56,0,0,1-1.7,5.65c.16-.57.34-1.13.47-1.7.49-2.13,1-4.24,1.42-6.39a31,31,0,0,0,.36-3.74c.19-2.55.39-5.11.53-7.67.11-2.12.2-4.24.19-6.37,0-2.34-.08-4.69-.24-7-.2-2.94-.43-5.88-.82-8.8a103.75,103.75,0,0,1-.6-14.21S182.41,16.77,182.57,16.61Zm-.92-2c.06,1.52.11,3,.07,4.58a89.92,89.92,0,0,0,.79,13.72c.35,2.75.47,5.54.64,8.31.12,1.74.13,3.49.21,5.24a48.1,48.1,0,0,1-.24,7.68,58.29,58.29,0,0,0-.38,6.2,29.6,29.6,0,0,1-2,10.09c0-.72.06-1.44.08-2.16.23-9.16.56-18.32-.11-27.49-.24-3.36,0-6.76,0-10.14q0-8.18.05-16.36c0-.65,0-1.3,0-1.94A2.76,2.76,0,0,1,181.65,14.56ZM178,31.71a59.47,59.47,0,0,0-.42,8.65c.05,2.51,0,5,0,7.53s0,5.13.2,7.68c.36,4.85.38,9.7.31,14.55a13.8,13.8,0,0,1-.22,1.68,23.7,23.7,0,0,1-.23-2.5,90.3,90.3,0,0,0-.95-12.72,25.53,25.53,0,0,1-.27-2.76c-.18-4.09-.41-8.18-.45-12.27a45.87,45.87,0,0,1,.52-6.18c.39-3.19.85-6.38,1.33-9.56.26-1.71.6-3.42,1-5.11C178.69,24.39,178.41,28.05,178,31.71Zm-.87,43.43c-.24-5.64-1.47-11.14-2.36-16.69a68,68,0,0,1,0-22.82,92.74,92.74,0,0,1,3-12.14c-.77,5.06-1.52,9.74-2.15,14.42a35.09,35.09,0,0,0-.21,5.23q.08,4.66.35,9.32c.12,2.13.35,4.25.63,6.36a74,74,0,0,1,.67,8.81c0,1.9.17,3.81.23,5.72,0,.68,0,1.36-.09,2A.57.57,0,0,1,177.09,75.14Zm1.34-19.08c-.11-2.72-.12-5.45-.15-8.18,0-2.46.05-4.92,0-7.37a77.58,77.58,0,0,1,.6-10.78c.32-2.88.44-5.77.68-8.66a19.32,19.32,0,0,1,.64-3.72c0,.41.1.83.09,1.25-.06,4.31-.09,8.63-.21,12.94a99.37,99.37,0,0,0,.12,10.64,194,194,0,0,1,.19,20.46,108.55,108.55,0,0,1-1,13.72c-.19,1.24-.34,2.49-.61,3.72a8.08,8.08,0,0,1-.51,1.45c0-.85,0-1.71,0-2.56a.35.35,0,0,0-.36-.36c0-1.85.28-3.68.4-5.52A164,164,0,0,0,178.43,56.06Zm-5.33,42c0,.81-.17,1.26-.57,1.57Zm-.63,1.67-.36,1.29A1.27,1.27,0,0,1,172.47,99.73Zm-1.92,3.78a1.52,1.52,0,0,1-.44,1.29Zm-9.31,16.62c2.87-4.95,6-9.77,8.52-14.92a1.14,1.14,0,0,1,.3-.32,30.37,30.37,0,0,1-3.52,7.79c-1.94,3-3.81,6.08-5.73,9.11a7.28,7.28,0,0,1-.77.91C160.43,121.84,160.77,121,161.24,120.13Zm35.21-1a53,53,0,0,1-7.15,6.23c-5.93,4.39-12.05,8.49-18.9,11.34-2.76,1.14-5.62,2.07-8.45,3.08a6.2,6.2,0,0,1-1.23.21c1.6-.78,3.21-1.55,4.81-2.34,1.8-.9,3.65-1.73,5.39-2.74,6-3.47,12.09-6.78,17.74-10.8,2.58-1.83,5.13-3.71,7.69-5.56.34-.24.72-.45,1.08-.67C197.1,118.27,196.81,118.72,196.45,119.1ZM233,81.17c-3.35,3.15-7.16,5.73-10.67,8.68a83.77,83.77,0,0,0-6.89,6.3c-.33.35-.65.73-1,1.06-6.55,6-12.68,12.35-19.67,17.82a15.87,15.87,0,0,0-1.36,1.36,8.83,8.83,0,0,0,1.25-.68,122.8,122.8,0,0,0,10.2-8.72c1.7-1.62,3.45-3.18,5.15-4.79,2.18-2.06,4.29-4.19,6.49-6.23s4.54-4.09,6.83-6.11a2.72,2.72,0,0,1,.65-.36,9,9,0,0,1-.71,1q-8.85,9.57-17.72,19.12c-.89,1-1.87,1.84-2.85,2.71a156.78,156.78,0,0,1-20.62,15.36c-.51.32-1,.64-1.54.94q-5.4,3.1-10.82,6.19c-1,.59-2.12,1.11-3.22,1.68l-.3-.44c-.47.24-1,.45-1.42.71l-7,4a2.71,2.71,0,0,1-.7.21,10.29,10.29,0,0,1,1.16-1c3.74-2.56,7.42-5.21,11.26-7.61a133.21,133.21,0,0,0,13.07-9.29q3.38-2.73,6.78-5.42c3.22-2.54,6.21-5.32,9.22-8.11,3.92-3.64,7.93-7.17,11.93-10.72,3.84-3.41,7.64-6.86,11.6-10.12,3.28-2.71,6.76-5.17,10.18-7.71a11.48,11.48,0,0,1,1.81-.94C233.71,80.42,233.38,80.82,233,81.17ZM205.36,95.56q-3.56,3.61-7.12,7.21c-1.12,1.12-2.35,2.13-3.41,3.3-3.69,4.1-7.73,7.84-11.7,11.66a24.35,24.35,0,0,1-2.1,1.83c-5.36,4-10.57,8.27-16.19,11.95-.81.54-1.68,1-2.52,1.5l-.75.58.68-.7c.37-.39.71-.81,1.11-1.18,6.67-6.13,13.27-12.32,20-18.35S197.15,101.58,204.31,96a8.71,8.71,0,0,1,1-.58l1.05-.74Zm1.39-.11A135.06,135.06,0,0,1,221.8,85.33l.63-.32a8.47,8.47,0,0,1-1,.89c-2,1.44-4.1,2.91-6.2,4.27a92.22,92.22,0,0,0-13.76,11.08c-2.36,2.27-4.76,4.5-7.16,6.72a8.35,8.35,0,0,1-1.1.77,9.86,9.86,0,0,1,.93-1.2c1.37-1.4,2.77-2.77,4.17-4.15,1.56-1.52,3.11-3,4.7-4.55A41.42,41.42,0,0,1,206.75,95.45Zm-10.68,11.64c2.3-2.16,4.62-4.33,6.91-6.52A82.06,82.06,0,0,1,214.5,91.4c3.29-2.16,6.51-4.41,9.79-6.59,1-.7,2.14-1.3,3.25-1.9a9,9,0,0,1,1.45-.54,11.17,11.17,0,0,1-1.12,1.06,159.22,159.22,0,0,0-14.26,11.81c-4.23,3.88-8.55,7.65-12.83,11.48-.41.36-.83.71-1.22,1.09-6.91,6.9-14.69,12.75-22.41,18.66-3.16,2.41-6.67,4.36-10,6.52a1.79,1.79,0,0,1-.41.13,9.27,9.27,0,0,1,1-1q5.9-4.95,11.81-9.88C185.22,117.41,190.61,112.22,196.07,107.09Zm39.15-29.77a7.12,7.12,0,0,1,2.44-.5c-.23.16-.47.31-.71.46a78.55,78.55,0,0,1-9.6,5c-.49.23-1,.52-1.44.78A38.2,38.2,0,0,1,235.22,77.32ZM162.57,128c11.29-14.35,24.46-26.61,40.19-36C206.32,89.91,210,88,213.63,86a10,10,0,0,1,1.56-.57c-.45.33-.89.68-1.38,1-2.11,1.24-4.24,2.47-6.37,3.69a94.55,94.55,0,0,0-11.1,7.53c-2.53,2-5.09,3.94-7.57,6s-4.91,4.17-7.29,6.33c-3.24,2.92-6.5,5.84-9.6,8.91s-6.08,6.4-9.12,9.61c-.39.4-.8.78-1.2,1.16C161.89,129.06,162.2,128.52,162.57,128Zm-4.8,7.18a56.88,56.88,0,0,1,6.54-6.63c2.2-2,4.35-4,6.49-6,7.74-7.3,15.52-14.55,23.88-21.14,2.23-1.76,4.59-3.33,6.89-5,.51-.38,1-.83,1.47-1.25a8.23,8.23,0,0,0-1.17.5,78.55,78.55,0,0,0-9.4,6.8c-1.28,1.1-2.58,2.19-3.9,3.24-3.3,2.6-6.29,5.55-9.42,8.35-4.62,4.15-9,8.54-13.59,12.75a13.66,13.66,0,0,1-1.51,1.07,9,9,0,0,1,.64-.85,142.27,142.27,0,0,1,10.38-10.46c1.43-1.27,2.85-2.56,4.2-3.91A184,184,0,0,1,195.36,99a103.35,103.35,0,0,1,14.71-9.8c3.74-2,7.42-4.2,11.15-6.26a13,13,0,0,1,2.05-.79l-.46.51a12.62,12.62,0,0,0,1.49-.55c1.7-.86,3.38-1.75,5.06-2.63a15.54,15.54,0,0,1-1.67,1.26c-2.23,1.26-4.51,2.45-6.75,3.71a136,136,0,0,0-18.39,12.28c-5.88,4.73-11.69,9.54-17.48,14.37-2,1.68-3.86,3.55-5.8,5.32l-21.1,19.2a12.42,12.42,0,0,1-1.26.89C157.19,136.08,157.45,135.62,157.77,135.22Zm-6.72,8c1.46-1.31,3-2.55,4.45-3.83a90,90,0,0,1,8.16-6.26c3.49-2.41,6.88-5,10.32-7.46.44-.32.93-.58,1.4-.86-.31.32-.59.67-.93,1-3.13,2.62-6.27,5.23-9.39,7.85a8.58,8.58,0,0,0-.86.95h0a10.75,10.75,0,0,0-1.38.75c-2.36,1.84-4.73,3.67-7.05,5.56a15.42,15.42,0,0,1-4.55,2.82c-.55.2-1.07.49-1.6.74C149.85,143.71,150.58,143.59,151.05,143.18Zm.1-6.12q1.82-2.62,3.66-5.22a3,3,0,0,1,.39-.41c-.33.64-.62,1.31-1,1.91-.76,1.17-1.57,2.31-2.39,3.44a11.75,11.75,0,0,1-1.05,1.07A5.32,5.32,0,0,1,151.15,137.06Zm-1.08,1.79-1,1.25A2.15,2.15,0,0,1,150.07,138.85Zm-1.1,1.48a10.93,10.93,0,0,1-3,4Zm-21.92,19.26c.14-.43.28-.86.41-1.29A1.3,1.3,0,0,1,127.05,159.59Zm8.67-41.38c.06-3.43-.14-6.85-.4-10.27a6.1,6.1,0,0,0,0-.74,124.21,124.21,0,0,1,.95-18.79c.48-4.07,1.07-8.12,1.62-12.17a2.52,2.52,0,0,1,.43-1.07c0,.21,0,.41-.05.62a55.77,55.77,0,0,0,.35,11.11c.18,1.63.15,3.27.22,4.91.1,2.78.19,5.56.32,8.34a90.62,90.62,0,0,1,.07,12.44c-.31,3.26-.67,6.52-1,9.78-.15,1.69-.18,3.38-.32,5.07a14,14,0,0,1-.42,2.41c-.77,2.85-1.52,5.71-2.41,8.52a58.42,58.42,0,0,1-2.25,5.6,104.29,104.29,0,0,0,1.88-13.38.24.24,0,0,0,.14-.2A115.31,115.31,0,0,0,135.72,118.21Zm-7.61,38.68,2.52-6.13C130.3,153,129.1,154.91,128.11,156.89Zm12.79-85a1.4,1.4,0,0,1,.1.47c1.17,7.17,2.51,14.32,3.11,21.58a116.93,116.93,0,0,1-.07,14.74c-.17,3.65-.42,7.31-.79,10.94a74.88,74.88,0,0,1-3.95,16.89c-.67,1.91-1.3,3.83-2,5.72a107,107,0,0,1-7.6,16.14c-1.1,1.89-2.17,3.79-3.27,5.68a4.53,4.53,0,0,1-.43.55c.92-1.87,1.8-3.76,2.77-5.61,2.79-5.31,5.38-10.72,7.65-16.28A62.54,62.54,0,0,0,139.88,131c.36-1.93.79-3.85,1.21-5.77a64.74,64.74,0,0,0,1.26-11.7c.11-2.88,0-5.77,0-8.66,0-1.53-.13-3-.17-4.58,0-1.72-.16-3.43-.34-5.14a209.62,209.62,0,0,0-1.19-23.63A3.07,3.07,0,0,1,140.9,71.92ZM139.81,69c.48,5.3.83,10.6,1.09,15.9,0,0,0,0,0-.08h0a23.21,23.21,0,0,0-.15,5.71,15.81,15.81,0,0,0,.2,1.79q.18,1.15.33,2.31c0,.22,0,.44,0,.65a.2.2,0,0,0,.06.16,127.49,127.49,0,0,1,.54,15.51A72.89,72.89,0,0,1,140,127.53c-.75,3-1.44,6.06-2.19,9.08a67.37,67.37,0,0,1-4.35,11.31c-1.2,2.63-2.48,5.22-3.87,7.77a2.22,2.22,0,0,1,.06-.45c1.16-3.35,2.31-6.71,3.51-10.05,1.06-3,2.24-5.93,3.24-8.93a43.4,43.4,0,0,0,2.3-9.88c.4-4.46.78-8.92,1.19-13.38a89,89,0,0,0,0-12.44c-.14-2.84-.22-5.68-.36-8.51-.13-2.57-.26-5.13-.48-7.69a44.59,44.59,0,0,1-.11-7c.11-1.58.15-3.17.17-4.75A11.69,11.69,0,0,1,139.81,69Zm-.22-2.24c0,.38.07.75.11,1.13a8.57,8.57,0,0,1-.35,1A2.72,2.72,0,0,1,139.59,66.77Zm-7.17,58c-.19-8.19-.25-16.38,0-24.57A90.8,90.8,0,0,1,134,86.55c.59-3.1,1.23-6.21,2-9.27a57.42,57.42,0,0,1,2.37-6.86,10.1,10.1,0,0,1,0,1.23c-.07.59-.22,1.18-.33,1.77-1.16,6.28-2,12.61-2.67,19a97,97,0,0,0-.47,15.53,4.07,4.07,0,0,0,.2.89c.1,3.11.08,6.24,0,9.37a23.25,23.25,0,0,0-.31,4.33c0,1.77-.1,3.53-.22,5.28-.07.84-.13,1.68-.2,2.52h0c-.27,2.89-.65,5.77-1.09,8.64a45,45,0,0,1-3.44,12.21,6.59,6.59,0,0,1,.09-1A91.17,91.17,0,0,0,132.42,124.78Zm-5.54,35.16c-.16.5-.21,1.05-.68,1.4C126.42,160.87,126.65,160.41,126.88,159.94ZM122,169.16a21.73,21.73,0,0,1,3.39-4.84,7.53,7.53,0,0,1-1.63,3.43c-.33.42-.59.9-.92,1.33a3.76,3.76,0,0,1-1.36,1.15C121.62,169.87,121.77,169.5,122,169.16ZM117.21,174q1.68-2.11,3.37-4.21c.23-.28.51-.52.77-.78a6.23,6.23,0,0,1-2.33,3.87l-2.28,1.85A8.21,8.21,0,0,1,117.21,174ZM2.49,255a2.83,2.83,0,0,1,1.82-1.38A3.39,3.39,0,0,1,2.49,255Zm.67.9c.24-.89.88-1.11,1.43-1.41A2.45,2.45,0,0,1,3.16,255.94Zm2.15-3.12,1.16-.88A1.66,1.66,0,0,1,5.31,252.82Zm42.26-27.73c-1.87,1.14-3.87,2.07-5.82,3.09a5.81,5.81,0,0,1,.87-.79q4.66-2.88,9.36-5.71a3.19,3.19,0,0,1,.7-.23C51,222.67,49.35,224,47.57,225.09Zm5.19-3.69a6.59,6.59,0,0,1,2.38-1.62A6.09,6.09,0,0,1,52.76,221.4ZM93.2,161.31c-1.51,5-2.92,9.95-4.58,14.85a68.62,68.62,0,0,1-6.08,13c-.67,1.13-1.38,2.24-2.07,3.35a9.54,9.54,0,0,1,.44-1.09,122,122,0,0,0,7.39-17.1q2.58-7.4,5.31-14.78C93.48,160.15,93.37,160.74,93.2,161.31ZM72.9,183.88c.14-1.5.24-3,.42-4.52.9-7.31,1.74-14.63,2.76-21.93.48-3.4,1.21-6.77,2-10.12s1.75-6.54,2.65-9.8a125.37,125.37,0,0,1,6.14-16.58c1.45-3.35,2.94-6.69,4.53-10-.23.81-.4,1.64-.69,2.43-1.09,3-2.22,5.93-3.33,8.89-.52,1.38-1,2.76-1.53,4.14a207.91,207.91,0,0,0-6.11,20.74c-.26,1.06-.36,2.15-.59,3.22-.76,3.52-1.62,7-2.31,10.55-.41,2.09-.63,4.21-.87,6.33a149.75,149.75,0,0,1-2.66,16.15c0,.18-.11.36-.16.55Zm-7.9,29c.41-.87.8-1.76,1.24-2.62A54.06,54.06,0,0,0,71,196.68c1-4.81,1.84-9.66,3.18-14.41a90.85,90.85,0,0,0,2.38-14.21A82.92,82.92,0,0,1,78.63,156c.79-2.94,1.18-6,1.77-9,.21-1.07.42-2.14.7-3.2,1.42-5.45,3-10.86,4.84-16.18,1.09-3.14,2.35-6.23,3.46-9.37.91-2.57,1.73-5.17,2.57-7.77.34-1.09.61-2.2,1-3.66a3.92,3.92,0,0,1,.55,2.61,10.78,10.78,0,0,1-.28,1.12c-1.24,4.53-2.55,9-3.72,13.6-.77,3-1.35,6-2,9-.45,2.08-.84,4.17-1.31,6.25-1,4.48-2,9-3,13.43-.48,2.19-.87,4.39-1.32,6.59-.23,1.18-.47,2.36-.74,3.53Q79.08,172,77,181.09c-.11.48-.23,1-.36,1.43-.92,3.38-1.88,6.74-2.75,10.13a77.93,77.93,0,0,1-3.66,10.52c-1.09,2.62-2.28,5.2-3.38,7.82A3.05,3.05,0,0,1,65,212.87Zm2.52-1.74c.47-1.13.9-2.27,1.41-3.39a89.53,89.53,0,0,0,6.22-17.57c.38-1.7.9-3.38,1.35-5.07,1.27-4.69,2.4-9.42,3.29-14.2.17-1,.43-1.92.68-2.87q1.83-7.07,3.06-14.25a31.48,31.48,0,0,1,.76-3.19c1.39-5,2.28-10,3.26-15.05.34-1.76.74-3.52,1.09-5.29,1.23-6.33,2.92-12.55,4.72-18.74a5.76,5.76,0,0,1,.31-.65c-.1,1.11-.2,1.85-.25,2.61a57.71,57.71,0,0,0-.31,5.87,75.84,75.84,0,0,1-.41,11.28c-.22,2.06-.35,4.14-.48,6.21a37.27,37.27,0,0,1-1,6.79c-.75,3-1.37,6.07-2.21,9.06-1.39,4.89-2.91,9.74-4.38,14.6-.92,3-1.82,6.07-2.8,9.08-.78,2.39-1.68,4.73-2.51,7.1-.7,2-1.46,4-2.06,6a89.42,89.42,0,0,1-4.49,11.77c-1,2.18-1.95,4.39-3,6.52A34.13,34.13,0,0,1,67.52,211.13Zm2.26-2.08c.32-.61.63-1.22,1-1.82a3,3,0,0,1,.67-.8A4.14,4.14,0,0,1,69.78,209.05Zm4.58-10.39c1.32-3.06,2.34-6.23,3.36-9.4,1.11-3.42,2.43-6.78,3.66-10.17.13-.36.27-.71.38-1.08,1.75-5.8,3.49-11.61,5.26-17.41.63-2.09,1.42-4.14,2-6.24,1.19-4.49,2.34-9,3.36-13.52a38.24,38.24,0,0,0,.5-5c.28-2.94.62-5.87.83-8.81a57.64,57.64,0,0,0,.13-5.88,69.25,69.25,0,0,1,.24-8c0-.2.11-.4.27-1,.36,1.47.59,2.58.89,3.67a11.23,11.23,0,0,1,.45,4.85,14.34,14.34,0,0,0-.08,2.45A111.07,111.07,0,0,1,94,141.81a27.3,27.3,0,0,1-.78,3.18c-1.43,5.16-2.83,10.33-4.34,15.46-.84,2.83-1.86,5.6-2.83,8.38-1.19,3.4-2.43,6.79-3.61,10.19-1.82,5.2-3.55,10.44-5.7,15.52-.91,2.16-2,4.23-3,6.34a3.48,3.48,0,0,1-.45.58C73.6,200.52,74,199.58,74.36,198.66Zm.44,1.26a65.76,65.76,0,0,0,3.62-8.41q2-5.55,4-11.09c1.18-3.29,2.29-6.6,3.53-9.86,3.3-8.7,5.56-17.71,8.1-26.64a61.31,61.31,0,0,0,1.59-10.17A75.7,75.7,0,0,0,96.27,122l.37-.06c.17,1.23.37,2.46.5,3.69a81.57,81.57,0,0,1-.22,17.81c-.15,1.3-.38,2.6-.65,3.88-.49,2.3-1,4.61-1.59,6.86-.74,2.57-1.65,5.09-2.5,7.63-.26.77-.59,1.53-.81,2.31-1,3.53-2.38,6.92-3.7,10.33-.57,1.47-1.11,3-1.69,4.43a121.83,121.83,0,0,1-6.62,14.24c-1.08,2-2,4-3.15,5.93A31.23,31.23,0,0,1,72.66,204Zm-1.47,8.74a2.55,2.55,0,0,1,1.61-1.16ZM75,207.48a2.87,2.87,0,0,1,1.65-1.18A2.62,2.62,0,0,1,75,207.48Zm29.79-16.31a14.81,14.81,0,0,1,2.08-1c2.76-.93,5.53-1.83,8.29-2.73h.09c1.58-.49,3.17-.95,4.75-1.44a.29.29,0,0,0,.1,0l1.58-.47a3.66,3.66,0,0,0,.44-.13c9.39-2.83,18.82-5.5,28.28-8.09q3-.78,5.94-1.61c.69-.19,1.39-.39,2.09-.57,2.92-.79,5.84-1.55,8.77-2.32a128.1,128.1,0,0,1,16.11-2.6c3.2-.31,6.39-.74,9.58-1.12-6.06,1.35-12.08,2.91-18.1,4.48l0,0-7.33,1.63c-4,.91-8,1.87-12,2.79-2.56.6-5.12,1.14-7.67,1.75q-4.14,1-8.26,2c-2.69.7-5.38,1.4-8.06,2.16-4.09,1.17-8.19,2.32-12.24,3.62a84.48,84.48,0,0,1-11.37,3.08Zm9.34-4.24c.46-.22.91-.44,1.37-.63a182.71,182.71,0,0,1,19.8-6.79c6.36-1.77,12.7-3.59,19.09-5.23,3-.79,6.2-1.22,9.3-1.8a7.3,7.3,0,0,1,.92-.08,2.14,2.14,0,0,1-.5.3l-1.5.46c-11.88,3-23.66,6.39-35.33,10-2.36.74-4.71,1.5-7.06,2.25a1.8,1.8,0,0,0-.8.26l-.75.23a10.65,10.65,0,0,0-2.28.54Zm41.34-1.08a67.35,67.35,0,0,1-13.29,3,12,12,0,0,1-1.34,0c.43-.12.87-.24,1.31-.34l13-3a9,9,0,0,1,1-.14A4.13,4.13,0,0,1,155.44,185.85Zm11-3.74a8.64,8.64,0,0,1-1.15.55q-3.28,1.11-6.6,2.17a7,7,0,0,1-1.13.18c.46-.2.91-.41,1.39-.58,1.85-.65,3.7-1.3,5.57-1.92.61-.21,1.26-.32,1.89-.47l.79-.22Zm11.48-5c-2.55,1-5.1,2-7.68,2.86-3.4,1.18-6.83,2.28-10.25,3.43a148.91,148.91,0,0,1-22.14,5.2A153.48,153.48,0,0,1,117,190.51c-1.74.06-3.48.34-5.21.51-.43,0-.85.06-1.28.08a12.16,12.16,0,0,1,4-1.19c5-.91,10-1.77,15-2.66,3.6-.64,7.2-1.31,10.8-1.95,3-.54,6-1.07,9-1.56a155.15,155.15,0,0,0,18.29-4.43c3.31-.94,6.64-1.82,10-2.69a9.68,9.68,0,0,1,1.53-.17A10.27,10.27,0,0,1,177.89,177.09ZM197,169.28l-.21.1a13.07,13.07,0,0,1-1.42.78,108.16,108.16,0,0,1-17,5.5c-3.35.73-6.67,1.67-9.95,2.68a138,138,0,0,1-21.78,5.2c-2.11.29-4.19.76-6.28,1.13l-19.66,3.49c-.3.05-.61.05-.91.07a8.33,8.33,0,0,1,1.25-.58c4.36-1.24,8.72-2.45,13.08-3.67.32-.09.65-.14,1-.24,6.86-2.26,14-3.51,20.94-5.33,5.56-1.44,11.17-2.61,16.77-3.83,2.24-.49,4.45-1.08,6.67-1.65a3.45,3.45,0,0,0,.74-.32c5.55-1.19,11.12-2.3,16.67-3.45Zm-74.3,11a110.28,110.28,0,0,1,31.79-11.24,104.85,104.85,0,0,1,18-1.7c.4,0,.81,0,1.21.07-.39.1-.78.22-1.17.29-6.29,1.15-12.64,2-18.85,3.48a193,193,0,0,0-29.62,9c-.73.29-1.49.48-2.24.71A6.8,6.8,0,0,1,122.7,180.32Zm-3.8,2.59c1.49-.55,2.95-1.16,4.42-1.76a196.08,196.08,0,0,1,19.08-6.42,238.57,238.57,0,0,1,27.17-6,75.59,75.59,0,0,1,16.79-1.12c2.95.14,5.89.13,8.84.19.41,0,.82.08,1.23.12a12.75,12.75,0,0,1-4.76.38v0a2.42,2.42,0,0,0-1.79.21h0a12.45,12.45,0,0,0-1.61-.06c-11.14.81-22.1,2.84-33,5-3.9.78-7.74,1.92-11.58,3-5.3,1.51-10.6,3.06-15.86,4.71a194.53,194.53,0,0,0-21.37,8.34,14.13,14.13,0,0,1-1.7.57C109.35,187.51,113.89,184.75,118.9,182.91Z"/><path class="cls-1" d="M178.05,82.18l0,0Z"/><path class="cls-1" d="M230.5,78.49q-8.64,4.19-16.83,9.19l-.17.11q-7.08,4.32-13.76,9.26a.22.22,0,0,0,.25.36c1.14-.78,2.28-1.56,3.43-2.32a3.3,3.3,0,0,0,1.38-.91l1-.66a4.09,4.09,0,0,0,1.33-.87A239.23,239.23,0,0,1,230.8,79.29C231.29,79.05,231,78.25,230.5,78.49Z"/><path class="cls-1" d="M211.83,89.16c.14-.09.29-.17.44-.25C212.12,89,212,89.07,211.83,89.16Z"/><path class="cls-1" d="M215.14,87c.15-.08.3-.16.44-.25C215.44,86.85,215.29,86.93,215.14,87Z"/><path class="cls-1" d="M215.55,86.78l.44-.25Z"/><path class="cls-1" d="M216,86.55l.44-.24Z"/><path class="cls-1" d="M216.35,86.33l.44-.25Z"/><path class="cls-1" d="M216.76,86.1c.14-.09.29-.17.44-.25C217.05,85.93,216.9,86,216.76,86.1Z"/><path class="cls-1" d="M217.16,85.87l.44-.25Z"/><path class="cls-1" d="M217.57,85.64l.43-.25Z"/><path class="cls-1" d="M218,85.41l.44-.25Z"/><path class="cls-1" d="M218.37,85.18c.15-.08.3-.16.44-.25Z"/><path class="cls-1" d="M218.78,85l.44-.24Z"/><path class="cls-1" d="M219.18,84.73l.44-.25Z"/><path class="cls-1" d="M219.58,84.5l.44-.25Z"/><path class="cls-1" d="M220,84.27l.44-.25Z"/><path class="cls-1" d="M220.39,84l.44-.25Z"/><path class="cls-1" d="M220.79,83.81l.44-.25Z"/><path class="cls-1" d="M221.2,83.58l.44-.25Z"/><path class="cls-1" d="M221.6,83.35l.44-.25Z"/><path class="cls-1" d="M222,83.12c.15-.08.3-.16.44-.25C222.3,83,222.15,83,222,83.12Z"/><path class="cls-1" d="M222.41,82.9c.14-.09.29-.17.44-.25C222.7,82.73,222.55,82.81,222.41,82.9Z"/></g></g></svg>